<svg xmlns="http://www.w3.org/2000/svg" viewBox="0 0 427.92 64.93"><defs><style>.cls-1{fill:#004785;}.cls-2{fill:#ed1c2e;}</style></defs><g id="Layer_2" data-name="Layer 2"><g id="Layer_1-2" data-name="Layer 1"><path class="cls-1" d="M283.93,45H270.5L272,39.15h-.3c-2.81,4.89-7.33,6-13.1,6-9.77,0-14.44-3.35-12.2-12l1.93-7.43c2.57-9.91,7.83-13.88,18.9-13.88,4.85,0,9.11.81,10.16,5h.53L282.51.4h13.43ZM265.4,37c5.46,0,7.42-1,9.34-8.42,1.64-6.32,2.05-8.49-4.95-8.49-6.62,0-7.3,2-9,8.49C258.76,36.48,259.86,37,265.4,37Z"/><polygon class="cls-1" points="332.69 45.02 319.09 45.02 327.89 11.99 341.5 11.99 332.69 45.02"/><polygon class="cls-1" points="342.43 8.49 328.89 8.49 331.01 0.35 344.63 0.35 342.43 8.49"/><path class="cls-1" d="M378.44,31.78c-1.58,6.07-3.75,9.41-7.37,11.21s-8.48,2.17-15.64,2.17c-15.61,0-18.32-3.78-15-16.6,2.87-11,7.1-16.67,23.63-16.67,11.62,0,19.28,1,16.28,12.58H367.11c.52-1.74.57-2.79-.18-3.47s-2.22-.93-5-.93c-4.69,0-6.35,1.05-8.27,8.49-2,7.61-1.12,8.42,3.88,8.42,6,0,6.62-1.18,7.66-5.2Z"/><path class="cls-1" d="M144.86,14.2c1.3-4.51-3.53-4.45-8-4.45-10.66,0-11.66,2.61-13.76,9.8l-2,7.25c-2.14,7.91,1,8.74,8.74,8.74,7.55,0,9.91-1.37,11.59-7.55H131.2l2.21-8.26h25.35l-2.11,7.79c-4.07,15-9.55,17.76-29.39,17.76-17.46,0-25.7-2.38-21.79-16.81l3.12-11.53C112.58,2.2,123.25,0,139.53,0c14.36,0,24.56.06,20.35,14.2Z"/><path class="cls-1" d="M398.37,18.34h.33c3.26-5.15,7.61-6.45,13.83-6.45,8.93,0,12.12,3.41,10.3,10.41L416.78,45H403.64L409,24.78c.74-3.16.07-4.71-4.24-4.71-5.92,0-7.66,2.85-8.69,6.81L391.21,45h-13L390.22.4h13.06Z"/><path class="cls-1" d="M200.25,28.56c-3.47,13.37-7.48,16.6-24.54,16.6-16.54,0-19.22-3.6-15.85-16.6,3.46-13.32,7.64-16.67,24.48-16.67S203.81,14.8,200.25,28.56Zm-27.15,0c-1.84,7.06-1.42,8.42,5,8.42,6.15,0,7.13-1.36,9-8.42s1.59-8.49-4.57-8.49C176.07,20.07,174.93,21.49,173.1,28.56Z"/><path class="cls-1" d="M244.09,28.56c-3.47,13.37-7.77,16.6-24.54,16.6-16.54,0-19.22-3.6-15.85-16.6,3.46-13.32,7.64-16.67,24.48-16.67S247.66,14.8,244.09,28.56Zm-27.16,0c-1.83,7.06-1.41,8.42,5,8.42,6.15,0,7.12-1.36,9-8.42s1.58-8.49-4.57-8.49C219.91,20.07,218.77,21.49,216.93,28.56Z"/><path class="cls-2" d="M17.38.39H46.59c11,0,17.1,1.72,14.46,11.47-1.53,5.64-3.94,9.32-11.52,10.28l-.13.47c8.1.42,8.43,4.4,6.92,10-3,10.93-9.73,12.45-21.5,12.45H5.34Zm10,17.88H38.07c5.18,0,6.63-.71,7.59-4.27.73-2.68.48-3.69-3.63-3.81H29.57Zm-4.58,17H34c4.81,0,7.05-.89,8-4.52s-.56-4.22-5.37-4.22H25.14Z"/><polygon class="cls-2" points="79.65 18.84 102.3 18.84 99.68 28.58 77.07 28.58 72.7 45.04 57.84 45.04 69.91 0.39 109.23 0.39 106.59 10.11 82.01 10.11 79.65 18.84"/><path class="cls-1" d="M307.09,25.49,301.94,45H288.37l8.84-32.92h13.07l-1.43,5.35s3.45-5.33,12-5.33h3.92l-2.23,8.35h-8.92C310.6,20.56,308.16,21.71,307.09,25.49Z"/><polygon class="cls-1" points="358.53 64.86 361.22 54.92 2.68 54.92 0 64.86 358.53 64.86"/><path class="cls-1" d="M366.75,50.51h7c2.68,0,2.8,1.87,2.13,4.33-.34,1.28-1.21,4.41-4.57,4.41H366l-1.52,5.57h-1.57Zm1.18,1.43-1.6,5.88h4.06c2.08,0,3.15,0,3.9-2.77s.38-3.11-1.56-3.11Z"/><path class="cls-1" d="M378.24,56h0a3.74,3.74,0,0,1,3.35-1.33c2.49,0,3.5.68,2.71,3.47l-1.82,6.66h-1.45L382.91,58c.49-1.83-.11-2.13-1.75-2.13-2.38,0-3.1.76-3.73,3.07l-1.59,5.84h-1.45l2.71-10h1.47Z"/><path class="cls-1" d="M393.23,61.78l-.11.37c-.71,2.65-2.72,2.78-4.88,2.78-3.78,0-4-1.29-3-5.11,1.14-4.16,2.28-5.13,5.75-5.13,3.14,0,3.93.74,2.93,4.44l-.28,1h-7c-.87,3.17-.75,3.58,1.87,3.58,2,0,2.67-.14,3.06-1.56l.1-.38Zm-.74-2.86c.7-2.84.41-3-1.8-3-2.63,0-2.92.7-3.66,3Z"/><path class="cls-1" d="M400.91,63.48h0a3.8,3.8,0,0,1-3.42,1.45c-2.56,0-3.17-1.07-2.46-3.7l1.75-6.43h1.45l-1.74,6.43c-.44,1.62-.57,2.49,1.31,2.49,2.05,0,3.19-.35,3.84-2.74l1.69-6.18h1.45l-2.72,10h-1.48Z"/><path class="cls-1" d="M413.69,57.41h-1.51l.1-.38c.27-1-.46-1-2-1-1.83,0-2.71,0-3.05,1.23-.48,1.79,0,1.65,1.52,1.73,2.45.15,4.83-.25,3.94,3-.76,2.82-2.68,2.93-4.84,2.93s-4.26-.11-3.66-2.34l.26-.94H406l-.21.79c-.26,1,.25,1.16,2.47,1.16,1,0,2.46.23,2.94-1.55s-.34-1.52-2.08-1.64c-2.06-.15-4.24.08-3.47-2.76s2.41-3,5-3c1.7,0,3.76.07,3.14,2.34Z"/><path class="cls-1" d="M422.3.89h0l-1.56,4.36h-.63L418.55.89h0V5.25h-.67V.41h1.2l1.4,4h0l1.37-4H423V5.25h-.67Z"/><path class="cls-1" d="M424.64,1h1a1.4,1.4,0,0,1,1.23.55,2.16,2.16,0,0,1,.36,1.3,2.16,2.16,0,0,1-.36,1.3,1.39,1.39,0,0,1-1.23.54h-1ZM424,5.25h1.61A2.47,2.47,0,0,0,426.89,5a2.37,2.37,0,0,0,1-2.13,2.37,2.37,0,0,0-1-2.13,2.47,2.47,0,0,0-1.31-.29H424Z"/></g></g></svg>