<svg xmlns="http://www.w3.org/2000/svg" viewBox="0 0 564.22 96.76"><defs><style>.cls-1{fill:#fdb824;fill-rule:evenodd;}</style></defs><g id="Layer_2" data-name="Layer 2"><g id="Layer_1-2" data-name="Layer 1"><path class="cls-1" d="M523.44,13.33a1.69,1.69,0,0,1,.6,2.38,1.87,1.87,0,0,1-2.59.2,1.73,1.73,0,0,1-.59-2.58c.59-.8,1.59-.8,2.58,0Zm.4-.6h0a2.19,2.19,0,0,0-3.38.4c-1.19,1.39-.2,2.58.6,3.38a2.34,2.34,0,0,0,3.38-.4,2.41,2.41,0,0,0-.6-3.38ZM540.36,8,538,4h-.79V8.75h.59V5l2.39,3.78h.8V4h-.6V8Zm-11.94-.8L530,6.57l1.59,3.77.6-.2-1.59-3.77,1.59-.8-.4-.4-3.58,1.4.2.59Zm0,4-4.18-1.59-.6.4,3,3.77.4-.39-2.39-3L529,11.93l.59-.39-3-4-.4.4,2.19,3.18Zm21.89.4-.2-.2.2-4.38-.79-.39-2.39,4,.4.4,2.18-3.38v4.57l.6.4,2.39-4-.4-.39-2,3.38Zm-4.18-2.19-2.78-.8.39-1.39,2.59.6.2-.4-2.59-.79.4-1.4,2.79.8v-.6l-3.19-1L542.55,9l3.38,1,.2-.6Zm10.15,8-1,1.19.4.59,3-4.17-.4-.6-5,1.2.4.59,1.39-.4,1.19,1.6Zm-.59-1.79h0l2.19-.4-1.4,1.59-.79-1.19ZM534.39,4.58h-.6l1,4.77.6-.2-1-4.57ZM553.7,10l1.19,1-3,3,.39.6,3-3,1.19,1,.4-.4-2.79-2.58-.39.4Zm7.36,9.34-.2-.59-4.58,1.39.8,3,.6-.19-.8-2.39,4.18-1.2Zm-41.79-2a2,2,0,0,0-2.19,1.19,2.23,2.23,0,0,0,1.59,3,2.1,2.1,0,1,0,2.19-3.58l-.2.6a1.49,1.49,0,0,1,.6,1.79,1.51,1.51,0,0,1-2.39.59c-1.2-.39-1.6-1.39-1.2-2.18a1.2,1.2,0,0,1,1.4-.8l.2-.59Zm35.42,24.26c-1-.8-1.19-1.79-.6-2.59s1.6-.79,2.59-.19c.8.79,1.2,1.79.6,2.58a1.87,1.87,0,0,1-2.59.2Zm-.4.4h0a2.21,2.21,0,0,0,3.39-.4,2.17,2.17,0,0,0-.6-3.18,2.15,2.15,0,0,0-3.38.2,2.25,2.25,0,0,0,.59,3.38Zm-16.52,5,2.39,3.78h.8V45.94h-.6v3.78h-.2l-2.39-3.78h-.59v4.78h.59V46.94Zm11.75.6-1.4.79-1.59-4-.6.19,1.6,4-1.6.6.2.4,3.58-1.4-.19-.59Zm0-3.78,4.18,1.59.79-.4-3-4-.4.4,2.19,3.18L549.12,43l-.6.4,2.79,3.78.6-.4-2.39-3Zm-21.7-.4v4.57l.6.4L531,44.15l-.6-.19-2,3.18V42.56l-.6-.39-2.58,4.17.59.2,2-3.18Zm4.18,2,2.59.79-.4,1.6-2.39-.8-.2.6,2.39.79-.4,1.39L531,48.93l-.2.4,3.38,1,1.2-4.57-3.39-1v.6Zm-10.15-8,.8-1-.2-.6-3.18,4,.39.6,5-1-.4-.59-1.39.19-1-1.59Zm.4,1.79h0l-2.19.6L521.45,38l.8,1.19Zm21.49,11.14.6-.2-1-4.57h-.6l1,4.77ZM524.24,45l-1-1.19,3-3-.6-.39-3,3-1-1.19-.39.39,2.58,2.79.4-.4Zm-7.16-9.55.19.8,4.58-1.39-1-3-.4.2.6,2.19-4,1.19Zm41.59,2a1.72,1.72,0,0,0,2.19-1.19c.6-1.19,0-2.39-1.39-3-1.79-.8-2.79,0-3.19,1a1.88,1.88,0,0,0,1,2.59l.2-.4a1.72,1.72,0,0,1-.8-1.79c.6-1.2,1.4-1.2,2.59-.8A1.91,1.91,0,0,1,560.46,36a1.32,1.32,0,0,1-1.59.8l-.2.59Zm-37.38-9.57h0v-.74h0a17.68,17.68,0,0,1,35.36.37,17.29,17.29,0,0,1-5.16,12.37,17.93,17.93,0,0,1-25,0,17.33,17.33,0,0,1-5.15-12ZM527,15.48a16.85,16.85,0,0,0-5,12A16.53,16.53,0,0,0,527,39.29a17.19,17.19,0,0,0,24,0,16.57,16.57,0,0,0,4.93-11.84,16.94,16.94,0,0,0-28.92-12Zm-9.72,12h1.2v1.19h-1.2V27.45Zm31.45,12.33h-2.29l.1-.2c-.79,0-.6-.4-.6-.4.2-.39,1.4-.2,1.4-.2v-.59l.4-.8a8.3,8.3,0,0,1,2-2.38v-.6a3.55,3.55,0,0,0-.79-.6,11.7,11.7,0,0,1-.8-1.59,2.11,2.11,0,0,1,.4-2c.4-.4,1-1,.4-2.78l1-.4a.43.43,0,0,1,.59.2c.2.2.8.2.4,2-.6,1.59-.8,1-.8,2.58,0,1.39,2,3,3.39,2.19a1.38,1.38,0,0,1-.6-1c-.2-1.79,1.39-5.57,1-6.77-.6-1-1.2-1.39-1.8-1.19a3.7,3.7,0,0,0-2.18,1,1.79,1.79,0,0,1-1.4,0c-.2,0-1.19-1.4-2.19-1.6a10.11,10.11,0,0,0-3.58,0L541,24.47l-1.19-.2a2,2,0,0,1-.4-1.2,1.55,1.55,0,0,0,.79-.19c0-.6-.6-.6-.39-1,0-.2.19.2.59-.4.2-.2-.2-.39-.2-.6,0-.39.6,0,.6-.59,0-.8-.4-.6-.4-.8,0-.4.6-.2.6-.59,0-.6-.4-.4-.6-.8,0-.4.8-.2.6-.79s-.6,0-.8-.4.6-.2.4-.8-.79-.2-1-.4c0-.4.6-.4.21-1,0-.2-.21-.2-.6-.2l-1.6-2v1.59l-2.18.6-.2.2-2.59.79h-.4l-.2.2v.4l-.2.2-.2.2v.39l.4.21,1.4-.4.39.19-.2.4-1.19.2-.2.2-.2.2.2.4.4.2.4-.2.4-.2.19-.2,1.4-.2.2.2.79.2-.19,1.19s0,.4-.6,1c-.4.39-1,.79-1.4,1.19-.39.6-.79.8-1.19,1.39a9.54,9.54,0,0,0-1,2.19l-1.19-.79-.4-.4-1-.2a11.47,11.47,0,0,1-3.39,1,7.73,7.73,0,0,1-1.39,1.4v-.2l-.4,2.38,1.79-.59.2-.6s-.79-.2-.59-.6c.39-.59,1,.2,1,.2l.4-.2.2-.39,1.59-1,1.19.4,1.8,1.79-1.6-.6-.2-.2-1.59.4a12.57,12.57,0,0,1-1.79,2.59,7,7,0,0,1-.4,2l.4,2,1.59-1.39-.19-.4s-.6-.2-.6-.59.79,0,.79,0V31s-.19-.6,0-.8a8.65,8.65,0,0,1,1.2-2h.79l4,2.19.4-.2.2-.4,2.79,1a2.64,2.64,0,0,1,1,.2c.4,0,3.78-.4,3.78-.4l-.39,1.19a2,2,0,0,0,.2.8c0,.4.79,1.19.79,1.39,0,0,1.19,1,1.19,1.59.2.6-.39,1-.79,1.2a5.86,5.86,0,0,1-1.59.79,2.41,2.41,0,0,1-1,1l-.45,1.19h-10.7l.8,1h18.11l.6-1Zm-4.5,0h-2.13l.06-.2c-.79,0-.59-.6-.59-.6.2-.39,1.39-.19,1.39-.19l.2-.2a.44.44,0,0,1,.2-.6c.39-.4,2.39-2,2.39-2l.19-.2v-.2c0-.2,0-.2-.19-.39a4.57,4.57,0,0,1-1.2-2.39c0-.8.2-.6.4-1a3.21,3.21,0,0,0,1,2c.4.2,1.6.8,1.8,1.4,0,.59-.2.59-.6,1.19a7.61,7.61,0,0,1-1.79,1.79l-.8.79-.32.8Zm15-12.33h1.19v1.19h-1.19V27.45Zm-45.35.37h0v-.74h0a25.31,25.31,0,0,1,7.32-17.5A24.86,24.86,0,0,1,539,2.22a25.16,25.16,0,1,1-25.05,25.6Zm7.85-17.71a24.49,24.49,0,0,0,0,34.53A24.19,24.19,0,0,0,539,51.74a24.49,24.49,0,0,0,17.3-7.13,24.13,24.13,0,0,0,7.21-17.16A24.5,24.5,0,0,0,539,3a24.1,24.1,0,0,0-17.2,7.15Z"/><path class="cls-1" d="M448.56,42.57a4.87,4.87,0,0,1,4.43,5V67.82a4.68,4.68,0,1,1-9.35,0V47.54a5,5,0,0,1,4.6-5ZM427.91,35c3.59-2.39,5.58-4,9.75-5.77a19.35,19.35,0,0,1,8.16-1.59c2.39,0,4.18,0,6,1.39s1.59,2.19,1.59,5.77v5.77a22.91,22.91,0,0,0-5-3.39,14.21,14.21,0,0,0-5.17-1c-11.35,0-19.11,9.74-19.11,21.88,0,10.94,6.57,21.28,17.52,21.28a22.94,22.94,0,0,0,7-1.2,15.82,15.82,0,0,0,4.78-2.38v1.79h23.28V72.2H471.9V39.58c-.6-10.34-3-11.14-7.57-14.32-2.18-1.79-7-2.78-8.95-3s-4.18-.4-6.17-.4a36.92,36.92,0,0,0-21.3,6.36V35Zm-34.83-9.75v3.58h5V72h-5v5.37h29.66V72h-5V28.84h5v-5h-5V1.79L393.08,25.26ZM480.25,4.38V9.75h4.38V72.2h-4.77v5.37h28.66V72.2h-5V4.38ZM385.32,35c0-8.95-7.56-12.93-16.91-12.93-5.78,0-10.16,1.79-13.34,5.37V23.87H330.79v5h5V72h-5v5.37H360V72h-5V34.61a5.48,5.48,0,0,1,10.95,0V77.37H390.3V72h-5V35ZM65.69,26.45a5,5,0,0,1,4.77,5V69.22a4.88,4.88,0,1,1-9.75,0V31.43a5.06,5.06,0,0,1,5-5Zm-.6,53.11c14.13,0,25.27-13.33,25.27-29.63S79.88,21.17,65.82,21.09h-.39c-14.21.15-25.62,12.62-25.62,28.84S51,79.56,65.09,79.56ZM273.87,35c0-8.95-7.57-12.93-16.92-12.93q-8.65,0-13.14,5.37V23.87H219.53v5h5V72h-5v5.37h29.26V72h-5V34.61a5.38,5.38,0,0,1,10.75,0V77.37h24.28V72h-5V35ZM154.65,25.26v3.58h5V72h-5v5.37H184.3V72h-4.77V28.84h4.77v-5h-4.77V1.79L154.65,25.26ZM146.89,35c0-8.95-7.57-12.93-16.92-12.93-5.57,0-10.15,1.79-13.14,5.37V23.87H92.55v5h5V72h-5v5.37h29.26V72h-5V34.61a5.38,5.38,0,0,1,10.75,0V77.37h24.28V72h-5V35ZM89,23.87V17.5L69.67,0V6C61.9,2.39,56.93,1.39,48.57,1.39,22.1,1.79.2,22.28,0,48.53-.39,75.18,21.9,94.87,48.57,96.66a52.1,52.1,0,0,0,40-14.91V75.18c-8.75,8.75-15.72,12.93-27.46,12.93-20.3,0-34.83-17.9-35-38.18-.2-20.49,14.53-39,35-39.19,11.94,0,20.3,3.78,27.86,13.13ZM189.68,11.93c0-4.57,5-9.34,11.14-9.34,6.37,0,11.35,4.77,11.35,9.34s-5,9.55-11.35,9.55c-6.17,0-11.14-5-11.14-9.55Zm21.89,11.94H187.29v5h5V72h-5v5.37h29.26V72h-5V23.87Zm92.75,3.18a5.2,5.2,0,0,1,5,5V47.74h-10V32a5.06,5.06,0,0,1,5-5Zm-5,34.61V52.31h30.05c0-.2.2-.4.2-.6V50.12c0-16.46-11.08-27.38-25.15-27.44h-.19c-14.1,0-25.21,11-25.21,27.45,0,16.31,11.14,29,25.28,29,11.54,0,23.28-8.15,24.88-20.68h-5.58s-2,15.11-16.72,14.91c-4.37,0-7.76-3.38-7.56-11.73Z"/></g></g></svg>