<svg xmlns="http://www.w3.org/2000/svg" viewBox="0 0 432 123.74"><defs><style>.cls-1{fill:#004b8d;}.cls-2{fill:#b1b7bc;}</style></defs><g id="Layer_2" data-name="Layer 2"><g id="Layer_1-2" data-name="Layer 1"><path class="cls-1" d="M170.8,33.41a6.71,6.71,0,0,0,1,6.39c5.62,8.14,27.39,13.88,54.18,14.28,17.1.9,34-.87,47.66-5a65.7,65.7,0,0,0,12.91-5.62h0c.24-.16.82-.55.59-1-.14-.24-.55-.07-.7,0l-.31.15C276,47.62,259,50,239.65,49.16a143.11,143.11,0,0,1-15.48-1.46c-2.24-.3-4.32-.68-6.2-1.12-12.24-2.59-20.54-6.77-22.75-11.47a5.66,5.66,0,0,1,.14-5.26c4-7.59,21.65-13.91,42-15,4.09-.32,8.53-.46,13.21-.4.31,0,.38-.18.37-.29l-.26-.21-5.32-.21c-1.55,0-3.11-.06-4.65-.06-33.41,0-66.05,9.05-69.94,19.77"/><path class="cls-2" d="M211.43.06c-48.05,1-82.86,12.51-84.64,28-1.21,10.5,13.7,20.51,40.91,27.48a130.64,130.64,0,0,0,29,4.38c.79,0,1-.36,1-.62s-.35-.51-1.07-.66c-11.06-1.68-15.87-3.27-15.92-3.28-17.88-4.94-27.6-12.49-26.67-20.7,1.34-11.71,25.05-24.51,67.79-26.33C262,6.5,289.31,16,295.55,26.33a9.6,9.6,0,0,1,.91,8.43c-2,5.89-9.48,11.66-20.42,15.8-7.71,2.93-20.85,5.85-33.46,7.43a1.38,1.38,0,0,0-.83.39l0,.23c0,.19.21.41.73.42,12.76-1.27,27.41-4.37,35.63-7.55C289.86,46.93,297.64,40.83,300,34.3a11.37,11.37,0,0,0-.82-9.79C292.4,12.37,261.41,0,216.65,0q-2.58,0-5.22.06"/><path class="cls-2" d="M281.06,80.72H256.12l-.28.2L254,86.76,254,87l.23.12h12.48l-6.51,20.68v.09l.06.17.23.12h10.6l.28-.2L278,87.14h11.82l.28-.2,1.8-5.84V81l-.05-.17-.24-.12H281.06"/><path class="cls-1" d="M13.07,80.77c-3.24,0-7.44,2.13-8.56,5.69L0,100.58v2.91a5.91,5.91,0,0,0,.72,1.25c1.68,2.45,5.24,3.54,11.53,3.54l23.14,0,.24-.15,3.12-6v-.26l-.23-.14-13.1,0H11.3c.22-.68,3.26-10.25,3.26-10.25l1-3.14a5.09,5.09,0,0,1,3.89-1.11H42l.25-.14,3.19-6v-.27l-.24-.14-32.15,0"/><path class="cls-1" d="M52.56,101.77c.2-.61,3.23-10.1,3.23-10.1l1-3.26c.16-.21.94-1,3.83-1.08l10.58-.06,2.26,0c-.77,2.49-4.08,12.95-4.22,13.32s-1,1.18-3.89,1.18l-12.82,0M45.85,86.9l-4.48,14.18,0,.11a4.65,4.65,0,0,0,1,3.35c1.76,2.55,5.39,3.74,11.4,3.74H67.39c7.39,0,11.22-1.62,12.43-5.26l4.82-15.24a4.39,4.39,0,0,0-.25-2.8c-.14-.27-1.5-2.61-6-3.67a19.47,19.47,0,0,0-4.47-.5l-.67,0H55c-4.39,0-7.91,2.35-9.18,6.12"/><path class="cls-1" d="M153.85,90.78H139.79c.18-.53.67-2,.67-2l.15-.44c.14-.44.48-1,1.9-1,.12,0,12,0,13.19,0s1.42.29,1.48.38v.22l-.53,1.69c-.33,1-1.08,1.17-2.44,1.17h-.37m-23.78-4.89,0,.1c-.26.69-4.59,14.49-4.78,15.07l-2.17,6.86,0,.25.22.11H134l.26-.19s3.28-10.34,3.4-10.7l22.29,0c3.81,0,5.68-.89,6.43-3.06l.21-.65,1.84-5.88a3.82,3.82,0,0,0-.64-3.44c-1.57-2.12-5.36-3.51-9.65-3.56l-18.66-.06c-3.47,0-7.94.89-9.44,5.13"/><path class="cls-1" d="M171.42,86.46l-.06.11c0,.13-4.09,13-4.26,13.49a4.41,4.41,0,0,0,.48,4.27c1.77,2.55,6.16,3.93,9.4,3.93l25.2,0,.25-.15,3-5.83,0-.26-.23-.13-12.86,0-14.35,0c.18-.55,1.4-4.27,1.5-4.59l19.78.05.27-.19,1.86-5.89v-.08l0-.16-.22-.11-19.5,0c.18-.48.54-1.48.54-1.48l.1-.28c.42-1.33,2.44-1.37,3.05-1.35l23.16,0,.24-.14,3.56-6.44V81l-.23-.13-29.58,0c-.38,0-.79,0-1.21,0-3.37,0-7.57.84-9.81,5.7"/><polygon class="cls-2" points="294.97 80.72 294.69 80.92 286.18 107.84 286.22 108.11 286.46 108.22 297.07 108.2 297.35 108 305.83 81.1 305.79 80.84 305.55 80.72 294.97 80.72"/><path class="cls-1" d="M94.61,101.77c.19-.61,3.2-10,3.2-10l1.06-3.31c.15-.21.93-1,3.82-1.08l10.58-.06,2.26,0c-.83,2.67-4.08,13-4.22,13.32s-1,1.18-3.89,1.18l-12.81,0M87.89,86.9l-4.48,14.17,0,.12a4.75,4.75,0,0,0,1,3.35c1.77,2.55,5.39,3.74,11.41,3.74h13.65c7.39,0,11.22-1.62,12.44-5.26l4.82-15.24a4.46,4.46,0,0,0-.25-2.8c-.15-.27-1.51-2.61-6-3.67a19.55,19.55,0,0,0-4.48-.5l-.66,0H97.08c-4.4,0-7.92,2.35-9.19,6.12"/><path class="cls-1" d="M237.21,90.69H223.15l.67-2,.15-.45c.14-.45.48-1,1.9-1,.12,0,12,0,13.19,0s1.42.28,1.48.38v.22L240,89.52c-.33,1-1.07,1.17-2.41,1.17h-.4m4.31-10-26.34,0-.27.19-6.3,20s-.07.21-2.17,6.86l0,.24.22.12h10.69l.26-.19s3.29-10.26,3.4-10.62h1.07l9.85-.05c.25.71,1.16,3,4.23,10.79l.26.17,10.22,0,.22-.11L247,108l0-.08s-3-9.94-3.23-10.58c3.55-.07,5.34-1,6.07-3.06l.17-.54,1.87-6a4.39,4.39,0,0,0,.16-1.12,3.89,3.89,0,0,0-.8-2.33c-1.57-2.11-5.36-3.51-9.65-3.55h0"/><path class="cls-2" d="M326.2,97.2l-.06-.16V97l.06.22h0m5.28-6.51H317.42l.68-2,.14-.42c.14-.45.48-1,1.9-1,.12,0,12,0,13.19,0s1.42.28,1.48.38v.22l-.53,1.69c-.33,1-1.08,1.18-2.44,1.18h-.37m4.31-10-26.34,0-.27.19-6.3,20-2.17,6.86,0,.24.22.12h10.69l.26-.19s3.29-10.26,3.4-10.62h1.06l9.87-.05c.25.71,1.15,3,4.22,10.79l.26.17,10.22,0,.22-.11.06-.17v-.08s-3-9.94-3.24-10.58c3.55-.07,5.33-1,6.07-3l.21-.66,1.82-5.87a4,4,0,0,0,.17-1.12,3.89,3.89,0,0,0-.8-2.33c-1.57-2.11-5.36-3.51-9.65-3.55h0"/><path class="cls-2" d="M350.1,86.46l-.06.11c-.05.13-4.1,13-4.27,13.49a4.44,4.44,0,0,0,.48,4.27c1.77,2.55,6.17,3.93,9.4,3.93l25.21,0,.24-.15,3-5.83V102l-.24-.13L371,102l-14.35,0c.18-.55,1.39-4.27,1.5-4.59l19.78.05.26-.19,1.87-5.89v-.08l-.06-.16-.21-.11-19.51,0,.54-1.46.1-.3c.42-1.33,2.45-1.37,3.06-1.35l23.16,0,.23-.14,3.56-6.44V81l-.24-.13-29.58,0c-.38,0-.79,0-1.2,0-3.38,0-7.57.84-9.81,5.7"/><polygon class="cls-2" points="387.78 102.06 384.8 107.88 384.81 108.15 385.04 108.28 414.35 108.21 414.44 101.95 387.78 101.91 387.78 102.06"/><path class="cls-2" d="M402.26,80.55c-.37,0-9.16-.1-11,5.84l-1.84,5.8c-.09.29-.84,2.81.34,3.7S392,97,394.22,97H416c-.2.61-1.56,5-1.56,5l-.13,6.26c.22,0,4.7-.12,7.19-1.55,2.9-1.67,3.3-2.4,3.94-4.42l2.19-6.92a3.17,3.17,0,0,0-.25-2.79c-.76-1.13-2.38-1.7-4.81-1.7h-22l.69-2.28a2.36,2.36,0,0,1,2.4-1.69c1.72,0,10.44,0,10.53,0l14.62,0,.24-.15,3-5.83v-.26l-.24-.13-29.49,0"/><path class="cls-1" d="M205.73,122.09l0-.22,2-6,.23-.17h2.21a1.66,1.66,0,0,1,1.14.5,1.14,1.14,0,0,1,.35.89l-.05.5-.45,1.42-.48,1.36a3.17,3.17,0,0,1-1.1,1.33l-.69.29-.71.16h-2.21l-.2-.1m-.95-7.83c-.11.31-2.94,8.82-3.14,9.42h8.43a3.81,3.81,0,0,0,1.82-.69,5,5,0,0,0,1.58-1.32,5.49,5.49,0,0,0,.66-1.33l.5-1.46.19-.52.18-.53.25-.94a2.26,2.26,0,0,0-.13-1.46,2.56,2.56,0,0,0-.66-.7,1.8,1.8,0,0,0-1.09-.47h-8.59"/><path class="cls-1" d="M219.58,121.64a1.83,1.83,0,0,1-.19-1.61l.36-1.14a7.87,7.87,0,0,1,.83-1.89,2.77,2.77,0,0,1,2.39-1.23,1.77,1.77,0,0,1,1.29.42,1.42,1.42,0,0,1,.37,1h0a6.33,6.33,0,0,1-.46,2,7.29,7.29,0,0,1-.91,1.88,2.76,2.76,0,0,1-2.28,1.11,1.7,1.7,0,0,1-1.4-.53m5.46-7.41h-2.92a6.78,6.78,0,0,0-2.65.45A5.61,5.61,0,0,0,217,117l-.33.78-.38,1.31-.43,1.21-.27,1.19v.15a2,2,0,0,0,.21.9,2.26,2.26,0,0,0,.72.69,2.43,2.43,0,0,0,1.1.46l1.31.06h2.93a6.76,6.76,0,0,0,2.65-.44A5.78,5.78,0,0,0,227,121l.36-.85.37-1.23.38-1.08.25-.89a2.36,2.36,0,0,0-.15-1.49,2.47,2.47,0,0,0-.67-.73,3.8,3.8,0,0,0-2.24-.49H225"/><path class="cls-1" d="M237.47,114.23h-2.7l-1,0a4.69,4.69,0,0,0-2.1,1,3.87,3.87,0,0,0-1.55,1.68s-2.05,6.17-2.25,6.76h3.43l2.12-6.37a2.29,2.29,0,0,1,1.29-1.2,3.28,3.28,0,0,1,1.43-.39,2.2,2.2,0,0,1,1.13.42,1.25,1.25,0,0,1,.67,1l-.06.33s-1.86,5.59-2.06,6.18h3.44c.28-.85,2.32-6.94,2.32-6.94l0-.15,0-.2a2,2,0,0,0-.47-1.14,2.1,2.1,0,0,0-1.35-1l-1.15-.06h-1.19"/><path class="cls-1" d="M244.29,114.83a2.53,2.53,0,0,0-1,1.41,1,1,0,0,0,.24.88,1.19,1.19,0,0,0,1,.49l.12,0,.27.35-.1.36,1.14-.21c.09-.25.77-2.29.77-2.29l0-.17,0-.18a1.31,1.31,0,0,0-.25-.72,1,1,0,0,0-.87-.55,2.36,2.36,0,0,0-1.38.6"/><path class="cls-1" d="M249.28,114.26c-.08.23-.35,1.07-.49,1.48,3.54,0,3.64,0,3.69,0l.16.13,0,.11v.08s-2.36,7-2.57,7.58l3.47,0,2.6-7.77.23-.17h3.8c.08-.23.36-1.08.49-1.48H249.28"/><path class="cls-1" d="M367.22,114.26c-.08.23-.35,1.07-.49,1.48,3.54,0,3.64,0,3.7,0l.15.13,0,.11v.08L368,123.65l3.47,0,2.6-7.77.23-.17h3.8c.08-.23.36-1.08.49-1.48H367.22"/><path class="cls-1" d="M271.33,114.26a3.86,3.86,0,0,0-1.81.68,5.49,5.49,0,0,0-1.61,1.32,5.77,5.77,0,0,0-.62,1.29l-.52,1.5-.42,1.18-.21.83a2.27,2.27,0,0,0,.13,1.45,2.69,2.69,0,0,0,.74.71c.56.43.76.46.81.46h8.81l1.82-5.45H275a31,31,0,0,1-1.32,3.88l-.18.08h-2.2a2,2,0,0,1-1.09-.46,1.08,1.08,0,0,1-.37-.9l0-.41.43-1.53.22-.67a3.22,3.22,0,0,1,1.43-2,3.51,3.51,0,0,1,1.33-.46h6c.08-.23.36-1.07.49-1.47h-8.43"/><path class="cls-1" d="M281.23,114.26l-3.14,9.42h3.43c.11-.31,3-8.82,3.14-9.42h-3.43"/><path class="cls-1" d="M294,114.26l-1.79,2.45L290.34,119l-.26.08-.17-.22s-.3-4.2-.32-4.63h-3.46c0,.49.62,9,.65,9.42h3.58c.14-.19,6.41-8.7,6.93-9.42H294"/><path class="cls-1" d="M301.39,114.26a3.86,3.86,0,0,0-1.81.68,5.49,5.49,0,0,0-1.61,1.32,5.77,5.77,0,0,0-.62,1.29l-.52,1.5-.42,1.18-.22.83a2.34,2.34,0,0,0,.14,1.45,2.89,2.89,0,0,0,.74.71c.56.43.76.46.81.46h8.8c.07-.23.35-1.06.48-1.47h-5.84a1.44,1.44,0,0,1-1.14-.56,1.51,1.51,0,0,1-.35-1l0-.27a1,1,0,0,1,.3-.65l.16-.06H308l.51-1.52h-7.6l-.2-.1,0-.15v-.07l.18-.54a2.27,2.27,0,0,1,1.23-1.15,3,3,0,0,1,1.24-.45h6c.08-.23.35-1.07.49-1.47h-8.43"/><path class="cls-1" d="M325,114.26l-2.11,6.33a2.27,2.27,0,0,1-1.28,1.23,3.44,3.44,0,0,1-1.49.4,2,2,0,0,1-1.18-.46,1.23,1.23,0,0,1-.58-1l.05-.33s1.88-5.62,2.07-6.2H317l-2.31,6.92-.05.15v.19a2.17,2.17,0,0,0,.54,1.26c.45.6.88.9,1.26.9h6.06a4.44,4.44,0,0,0,2.07-1,4,4,0,0,0,1.56-1.65l2.27-6.8H325"/><path class="cls-1" d="M340.8,118.05h0m-9,2,0-.22,1.33-4,.23-.17h2.21a1.29,1.29,0,0,1,1.32.87,2,2,0,0,1,.1,1.08,3.14,3.14,0,0,1-1.11,1.8,2.51,2.51,0,0,1-1.64.71H332l-.2-.1m-1.62-5.84c-.11.31-2.94,8.82-3.15,9.42h3.49a11,11,0,0,1,.6-1.85l.23-.14h5a3.73,3.73,0,0,0,1.71-.75,5.57,5.57,0,0,0,1.51-1.25,7.48,7.48,0,0,0,.82-1.8l.36-1.25a1.85,1.85,0,0,0-.11-1.08,2.7,2.7,0,0,0-.79-.86,2,2,0,0,0-1-.44h-8.6"/><path class="cls-1" d="M350.89,118.1l0-.23.18-.51a2.25,2.25,0,0,1,1.15-1.14,3,3,0,0,1,1.49-.46,1.87,1.87,0,0,1,1.19.5c.59.48.6.94.5,1.23l-.19.54-.23.17h-3.86l-.2-.1m4.16-3.87-.72,0-3,0a4.57,4.57,0,0,0-2,1,4.33,4.33,0,0,0-1.79,1.89l-2.18,6.54H349c1.2-3.76,1.25-3.83,1.32-3.9l.18-.07h3.86l.2.1.05.15V120s-1,3.1-1.22,3.65h3.44l2.31-6.94,0-.14v-.17a2,2,0,0,0-.49-1.17,2.2,2.2,0,0,0-1.35-1l-1-.06h-1.2"/><path class="cls-1" d="M387.82,114.26c-1.22,3.71-1.26,3.79-1.27,3.82l-.22.15h-4l-.2-.11-.05-.14v-.08s1-3.09,1.22-3.64h-3.46l-3.14,9.42h3.46c1.22-3.72,1.25-3.79,1.27-3.83l.22-.14h4l.2.1.05.15,0,.07-1.21,3.65h3.45c.11-.32,2.95-8.82,3.14-9.42h-3.45"/><path class="cls-1" d="M392.62,114.26c-.11.31-2.95,8.82-3.14,9.42h3.43c.1-.32,2.94-8.82,3.14-9.42h-3.43"/><path class="cls-1" d="M404.3,114.23h-2.71l-1,0a4.69,4.69,0,0,0-2.1,1,3.87,3.87,0,0,0-1.55,1.68s-2.05,6.17-2.25,6.76h3.43c.29-.84,2.12-6.37,2.12-6.37a2.19,2.19,0,0,1,1.29-1.2,3.28,3.28,0,0,1,1.43-.39,2.2,2.2,0,0,1,1.13.42,1.25,1.25,0,0,1,.67,1l-.06.33s-1.86,5.59-2,6.18h3.43c.28-.85,2.32-6.94,2.32-6.94l0-.15,0-.2a2,2,0,0,0-.47-1.14,2.07,2.07,0,0,0-1.36-1l-1.14-.06H404.3"/><path class="cls-1" d="M413.53,114.26a3.82,3.82,0,0,0-1.81.68,4.13,4.13,0,0,0-2.24,2.61l-.52,1.5-.41,1.18-.22.83a2.34,2.34,0,0,0,.13,1.45,2.84,2.84,0,0,0,.75.71c.55.43.76.46.81.46h8.8l1.82-5.45h-3.47a34.58,34.58,0,0,1-1.32,3.88l-.19.08h-2.2a1.93,1.93,0,0,1-1.08-.46,1.06,1.06,0,0,1-.38-.9l0-.41.44-1.53.21-.67a3.23,3.23,0,0,1,1.44-2,3.46,3.46,0,0,1,1.33-.46h6c.08-.23.36-1.07.49-1.47h-8.42"/><path class="cls-1" d="M421.54,121.72a1.81,1.81,0,0,0-.76,1l.18.66a.85.85,0,0,0,.44.35h.41a2.55,2.55,0,0,0,.71-.35,1.71,1.71,0,0,0,.83-1l0-.14-.16-.52a.71.71,0,0,0-.65-.42,1.71,1.71,0,0,0-1,.44"/></g></g></svg>