<svg xmlns="http://www.w3.org/2000/svg" viewBox="0 0 450 83.06"><defs><style>.cls-1{fill:#0963ac;}.cls-2{fill:#e31959;}</style></defs><g id="Layer_2" data-name="Layer 2"><g id="Layer_1-2" data-name="Layer 1"><path class="cls-1" d="M154.86.1C153.23,9.56,145,46.6,145,46.6H124.09c3-14.24,5.52-28.22,8.12-42.59L102,35.46h22.55c-3.12,3.87-5.85,7.41-9.19,11.16l-50.83,0L107.63,4.73C114.3-1.86,149.91.5,154.86.1"/><path class="cls-1" d="M184.37.16c-2.6,12.33-7.77,35.32-7.77,35.32h42.77L210.69,46.6H154.3C157.13,30.47,160,15.94,163.76.16Z"/><path class="cls-1" d="M18.41,21.91a26.82,26.82,0,0,0,1-4.36c1-5.46,1.64-11.42,7.18-14,4.1-2.82,6.75-2.46,12-3.4l62.64,0c-4,4.09-7.92,8.5-11.75,12.3H46c-2.79.47-3.45,1.78-4,4-.5,1.9-1.16,3.66-1.62,5.44Z"/><path class="cls-2" d="M17.78,24.73C9,23.1,6.72,22.64,0,21.92H40.33l41,0L59.69,42.16c-7.42-6.71-11.24-8.48-21.55-12a142.26,142.26,0,0,0-20.36-5.43"/><path class="cls-1" d="M38.18,30.25S36.38,37.14,34,46.6H13.61c1.06-7,4.13-21.8,4.17-21.8a113.28,113.28,0,0,1,20.4,5.45"/><path class="cls-1" d="M248.76.12c-1.36,7.66-2.53,14.72-3.89,22.49L274.54.12h29.32L269.13,23.91c8.59,8.59,15.3,14.71,23.07,22.72l-23.66,0c-8.7-7.78-14.51-13.37-23.67-21.88C243,32.5,241.22,39,239,46.61H219c3.36-15.5,6.61-31.24,10.19-46.48Z"/><path class="cls-1" d="M371.67.12c-.87,4-2,8.61-2.71,12.38l-42.5,0c-5.76,0-5.59,5.91-5.59,5.91h40.56c-.71,4.26-1.52,7.79-2.4,11.74H319.76a43.79,43.79,0,0,0-1.43,5.36c16.2,0,33.78,0,50.05-.07C365.43,39.06,361.9,43,359,46.63l-63.58,0C297.26,34,299.86,21.67,303,9.07c2.83-6.12,8.24-9,14.84-9Z"/><path class="cls-1" d="M437.13.16c4.71.82,10.6,3.38,12.48,8.44a12.94,12.94,0,0,1,0,6.36c-.18.69-7.18,31.67-7.18,31.67l-20.37,0c1.94-11.16,3.86-20,6-31.65a2.89,2.89,0,0,0-3.07-2.5c-.85,0-26.84,0-26.84,0l-6.59,34.13-19.78,0C374.55,31.1,377.64,15.87,381,.12Z"/><polygon class="cls-1" points="84.72 77.73 86.9 68.38 75.12 68.38 72.94 77.73 68.95 77.73 74.03 55.92 78.02 55.92 75.89 65.08 87.67 65.08 89.8 55.92 93.78 55.92 88.71 77.73 84.72 77.73"/><path class="cls-1" d="M95.32,59.65l.87-3.72h3.69L99,59.65ZM91.11,77.73l3.71-15.92h3.69l-3.7,15.92Z"/><path class="cls-1" d="M109.08,74.82h-3.59c-1.7,0-3-.32-3.37-2A6.4,6.4,0,0,1,102.2,70a10.15,10.15,0,0,1,1.43-3.33c1.17-1.67,2.71-1.93,4.41-1.93h3.4Zm3.27,1.87,3.46-14.88h-7.29c-2.22,0-4.15.13-6.19,1.73A11.31,11.31,0,0,0,98.42,70c-1,4.15.32,7.49,4.7,7.75,1.74.09,3.52,0,5.29,0-.51,2.19-.89,2.42-3.15,2.42H97.61l-.68,2.91h7.66c1.79,0,4,0,5.64-1.5a6.54,6.54,0,0,0,1.74-3.4c.15-.49.26-1,.38-1.47"/><path class="cls-1" d="M125.87,77.73,128,68.58c.67-2.91.34-3.86-2.73-3.86h-3.63l-3,13h-3.7L120,55.93h3.69l-1.36,5.88h4.05c4.93,0,6.6,1.41,5.41,6.51l-2.19,9.41Z"/><path class="cls-1" d="M154.61,62.79c-.66,2.88-2.14,3.89-4.89,3.89h-6l1.74-7.48h6c1.31,0,2.4.06,3,1.17a3.31,3.31,0,0,1,.18,2.42m4.33.1c.56-2.42.11-4.84-1.75-6.08-1.31-.88-3.07-.88-4.77-.88h-10.2l-5.07,21.8h4L142.94,70h6.38c2.65,0,5.11-.19,7.27-2.58a10.12,10.12,0,0,0,2.35-4.48"/><path class="cls-1" d="M163,77.73c-1.8,0-3.34-.1-4.59-1.17-1.67-1.41-2-4-1.45-6.31A11.93,11.93,0,0,1,161,63.54a9.4,9.4,0,0,1,6-1.73h5.3l-.68,2.91h-4.9c-2.68,0-4.24.65-5.32,3.46h9.41l-.67,2.92h-9.42c-.58,3.07.84,3.72,3.61,3.72h4.94l-.68,2.91Z"/><path class="cls-1" d="M180.53,69c.59-2.55,1.23-4.18-1.87-4.18h-1.28l-3,12.91h-3.7l3.71-15.92h5.16c1.7,0,3.56,0,4.62,1.24s.61,2.88.25,4.41L184.06,69Z"/><path class="cls-1" d="M195.09,58.84c-1.67,0-2.3.45-2.69,2.15l-.2.82h4.61l-.67,2.91h-4.61l-3,13h-3.69l3-13H185l.67-2.91h2.85l.19-.82c.79-3.4,2.62-5.06,6.08-5.06h3.53l-.67,2.91Z"/><path class="cls-1" d="M207.16,69.86c-.69,3-2.4,5.12-5.64,5.12s-4-2.09-3.26-5.06,2.36-5.36,5.69-5.36,3.9,2.35,3.21,5.3m3.81.06c1.22-5.23-1-8.31-6.27-8.31a10.14,10.14,0,0,0-10.26,8.27c-1.21,5.21,1.23,8.05,6.37,8.05a9.91,9.91,0,0,0,10.16-8"/><path class="cls-1" d="M220.7,69c.59-2.55,1.24-4.18-1.87-4.18h-1.28l-3,12.91h-3.7l3.71-15.92h5.17c1.69,0,3.55,0,4.61,1.24s.61,2.88.25,4.41L224.23,69Z"/><path class="cls-1" d="M241.39,77.73l2.24-9.64c.57-2.42.16-3.37-2.36-3.37h-2.41l-3,13h-3.69l3-13H229.8l-3,13h-3.7l3.7-15.92h15c1.89,0,4.11-.1,5.25,1.31,1,1.24.83,2.91.43,4.64l-2.32,10Z"/><path class="cls-1" d="M259.2,74.82H254c-1.44,0-2.74-.16-2.34-1.89s1.81-2,3.25-2h5.16Zm3.05,2.91,2.22-9.58c.87-3.72.48-6.11-3.63-6.31-.54,0-1.13,0-1.69,0h-7.81l-.68,2.91h7.42c2.46,0,3.39.33,2.78,3l-.09.35h-5.52c-1.57,0-3.57,0-5.05,1.18A6.88,6.88,0,0,0,247.89,73c-.46,2,.09,3.86,1.94,4.45a11.81,11.81,0,0,0,3.39.32Z"/><path class="cls-1" d="M275.36,77.73l2.24-9.64c.53-2.26.07-3.37-2.29-3.37h-3.76l-3,13h-3.69l3.7-15.92h7.85c4.51,0,6,1.77,4.94,6.31l-2.24,9.61Z"/><path class="cls-1" d="M288.76,77.73c-2.32,0-4.46-.23-5.71-2a7.36,7.36,0,0,1-.67-5.82,11.07,11.07,0,0,1,3.7-6.25,9.43,9.43,0,0,1,6.39-1.86H298l-.68,2.91h-5.17c-3.56,0-5.1,1.7-5.89,5.14a5.48,5.48,0,0,0,.06,3.36c.61,1.47,2.08,1.6,3.71,1.6h4.94l-.68,2.91Z"/><path class="cls-1" d="M302.62,77.73c-1.79,0-3.34-.1-4.59-1.17-1.67-1.41-2-4-1.45-6.31a11.93,11.93,0,0,1,4.08-6.71,9.43,9.43,0,0,1,6-1.73H312l-.68,2.91h-4.9c-2.68,0-4.24.65-5.31,3.46h9.4l-.67,2.92h-9.42c-.57,3.07.84,3.72,3.62,3.72h4.93l-.67,2.91Z"/><polygon class="cls-1" points="326.1 59.2 321.78 77.73 317.79 77.73 322.1 59.2 314.82 59.2 315.58 55.92 334.24 55.92 333.48 59.2 326.1 59.2"/><path class="cls-1" d="M335.28,82.86a11.49,11.49,0,0,1-2.59.2H325l.68-2.91h7.29a5,5,0,0,0,2.62-.42,3.1,3.1,0,0,0,1.08-2h-4.15c-.49,0-.95,0-1.43,0-2.08-.2-3.74-1.47-3.77-3.63a12.59,12.59,0,0,1,.49-3.07l2.14-9.19h3.72l-2.11,9.09c-.56,2.38-.75,3.92,2,3.92h3.79l3-13h3.73l-3.34,14.35c-.69,2.94-1.95,6-5.46,6.7"/><path class="cls-1" d="M353,69c.6-2.55,1.24-4.18-1.87-4.18h-1.27l-3,12.91h-3.7l3.71-15.92h5.16c1.71,0,3.56,0,4.61,1.24s.61,2.88.26,4.41L356.56,69Z"/><path class="cls-1" d="M363.33,77.73c-1.8,0-3.34-.1-4.6-1.17-1.67-1.41-2-4-1.44-6.31a11.93,11.93,0,0,1,4.08-6.71,9.38,9.38,0,0,1,6-1.73h5.29L372,64.72h-4.9c-2.69,0-4.25.65-5.32,3.46h9.41l-.68,2.92h-9.41c-.58,3.07.83,3.72,3.61,3.72h4.94L369,77.73Z"/><path class="cls-1" d="M384,76.52c-1.49,1.34-3.42,1.21-5.05,1.21h-8.7l.68-2.91h7.68c.66,0,1.31,0,2-.06a1.81,1.81,0,0,0,1.79-1.67c.45-2-1.13-1.73-2.6-1.73s-4,.16-5.35-.33c-1.72-.62-2.15-2.71-1.73-4.54a6.33,6.33,0,0,1,1.94-3.3,6.77,6.77,0,0,1,4.81-1.38h8.59l-.67,2.91h-7.46c-1.53,0-2.94-.13-3.41,1.86s1.16,1.77,2.6,1.77c1.6,0,4.13-.2,5.58.33,1.66.59,1.9,2.38,1.5,4.12A7.42,7.42,0,0,1,384,76.52"/></g></g></svg>