<svg xmlns="http://www.w3.org/2000/svg" viewBox="0 0 1049.03 198.64"><defs><style>.cls-1{fill:#231f20;stroke:#231f20;stroke-miterlimit:22.93;stroke-width:0.22px;}.cls-1,.cls-2,.cls-3{fill-rule:evenodd;}.cls-2{fill:#ed1c24;}.cls-3{fill:#fff;}</style></defs><g id="Layer_2" data-name="Layer 2"><g id="Capa_1" data-name="Capa 1"><path class="cls-1" d="M25.36.11h998.31c13.9,0,25.26,8.85,25.26,19.68V178.85c0,10.83-11.36,19.68-25.26,19.68H25.36c-13.89,0-25.25-8.85-25.25-19.68V19.79C.11,9,11.47.11,25.36.11Z"/><polygon class="cls-2" points="857.6 28.45 857.6 137.94 946.27 170.19 1031.57 142.63 1031.57 32.39 945.14 61.07 857.6 28.45"/><path class="cls-2" d="M57.66,111.22l4.77-15.75,40.4-.56-21,43c-19.37,4.51-63.9,6.5-64.32-22.47-.3-20.15,20.88-45.68,44.62-46.06l40.74-.65-7.3,19.12-36.31.44c-3.9.05-16.35,7.34-13.27,22.88.58,3,3.41,11.4,16.95,9.57l3.24-9Z"/><polygon class="cls-2" points="107.88 88.44 113.77 68.91 181.12 68.91 174.94 88.44 142.95 88.44 140.71 96.32 166.8 96.32 160.07 112.91 134.53 112.91 132.57 119.66 165.4 119.66 157.54 137.94 96.09 137.94 114.33 88.44 107.88 88.44"/><polygon class="cls-2" points="262.2 88.44 268.09 68.91 335.44 68.91 329.26 88.44 297.27 88.44 295.03 96.32 321.12 96.32 314.39 112.91 288.86 112.91 286.89 119.66 319.72 119.66 311.86 137.94 250.41 137.94 268.65 88.44 262.2 88.44"/><polygon class="cls-3" points="761.64 88.44 767.53 68.91 834.88 68.91 828.7 88.44 796.71 88.44 794.47 96.32 820.56 96.32 813.83 112.91 788.3 112.91 786.33 119.66 819.16 119.66 811.3 137.94 749.86 137.94 768.1 88.44 761.64 88.44"/><polygon class="cls-2" points="180.27 88.44 186.16 68.91 219.84 68.91 228.81 97.44 238.91 68.91 263.04 68.91 239.19 137.94 213.94 137.94 203 108.41 191.49 137.94 168.49 137.94 186.72 88.44 180.27 88.44"/><path class="cls-2" d="M334,88.44l5.89-19.53h52.75c30.39,0,34.92,29.87,1.46,44.07l7.8,25H372.47L369,114.65l-6.74-.76-10.53,24H322.24l18.24-49.5Zm32,12.66c14.2.8,16.25-3,18.35-7.39s-1.17-5.85-13.58-5.27Z"/><path class="cls-2" d="M432.66,88.44l11.92-19.53h42.93l2,69h-28.9l-.21-11.81-22.52-.28L430,137.94H405l34.09-49.5Zm27.42,21.31-.32-17.93-12.09,17.72Z"/><polygon class="cls-2" points="506.31 88.44 512.21 68.91 548.68 68.91 539.14 96.32 531 119.66 559.62 119.66 551.76 137.94 494.53 137.94 512.77 88.44 506.31 88.44"/><path class="cls-3" d="M678,88.44l5.89-19.53h52.75c30.39,0,34.91,29.87,1.45,44.07l7.81,25H716.47L713,114.65l-6.73-.76-10.54,24H666.24l18.24-49.5Zm32,12.66c14.21.8,16.26-3,18.36-7.39s-1.18-5.85-13.59-5.27Z"/><polygon class="cls-3" points="570.29 88.64 577.58 68.91 643.8 68.91 637.06 88.64 618.54 88.64 601.71 137.94 570.29 137.94 590.49 88.64 570.29 88.64"/><polygon class="cls-3" points="651.09 68.91 627.52 137.94 656.14 137.94 680.35 68.91 651.09 68.91"/><path class="cls-3" d="M915.57,113.71c-9.38,0-10.68-17.82,1.68-18l41.25-.54-.28,42.75H907.55c-43.55,0-36.67-67.55,7.41-68.25l3.59-.06,20,21.91-23.22.29c-19.14.22-17.08,30.55-.79,30l20.19-.73v-7.34Zm9-44.17L944,91.47l14.07-.17-22-22-11.59.19ZM942,69.25l47.76,48.15V91.6l22.89.29.09-23L955.69,69,942,69.25ZM989.78,123v13.94l-27.44-27.67L962,95.18,989.78,123Zm-4.7,15h-22l-.6-22.56Z"/></g></g></svg>