<svg xmlns="http://www.w3.org/2000/svg" viewBox="0 0 718.6 173.93"><defs><style>.cls-1,.cls-5{fill:#231f20;}.cls-2,.cls-4{fill:#ec2e33;}.cls-3{fill:#2a57a7;}.cls-3,.cls-4,.cls-5{fill-rule:evenodd;}</style></defs><g id="Layer_2" data-name="Layer 2"><g id="Page_1" data-name="Page 1"><path class="cls-1" d="M13.18,158H5v5.28h9.13v4.12H0V145.19H13.68v4.12H5v4.62h8.17Z"/><path class="cls-1" d="M21.22,151.29l1.59,2.7,1.32,2.41h.06c.43-.89.82-1.68,1.25-2.47l1.42-2.64H32.3L27,159l5.37,8.44H26.7l-1.62-2.9c-.46-.8-.86-1.62-1.25-2.44h-.1c-.4.85-.82,1.64-1.22,2.44L21,167.41h-5.5L21,159.2l-5.34-7.91Z"/><path class="cls-1" d="M34.51,156.69c0-2.11-.07-3.88-.13-5.4h4.35l.23,2.24H39a6.26,6.26,0,0,1,5.37-2.6c3.53,0,6.7,3.06,6.7,8.2,0,5.87-3.73,8.64-7.32,8.64a5,5,0,0,1-4.19-1.85h-.06v8h-5Zm5,3.8a4.93,4.93,0,0,0,.1,1,3,3,0,0,0,2.93,2.37c2.17,0,3.46-1.81,3.46-4.55,0-2.57-1.15-4.51-3.4-4.51a3.13,3.13,0,0,0-3,2.54,3.62,3.62,0,0,0-.1.89Z"/><path class="cls-1" d="M58.17,161C58.3,163,60.38,164,62.72,164a13.33,13.33,0,0,0,4.45-.69l.66,3.39a15.11,15.11,0,0,1-5.84,1c-5.47,0-8.6-3.17-8.6-8.21,0-4.09,2.54-8.6,8.14-8.6,5.21,0,7.19,4,7.19,8a11.42,11.42,0,0,1-.17,2Zm5.9-3.43c0-1.22-.53-3.26-2.84-3.26-2.1,0-3,1.94-3.09,3.26Z"/><path class="cls-1" d="M71.71,156.6c0-2.38,0-3.93-.13-5.31h4.29l.2,3h.13a4.69,4.69,0,0,1,4.35-3.37,5.35,5.35,0,0,1,1,.1v4.72a7,7,0,0,0-1.35-.14,3.23,3.23,0,0,0-3.43,2.54,6.48,6.48,0,0,0-.1,1.12v8.18h-5Z"/><path class="cls-1" d="M89.41,146.81a2.49,2.49,0,0,1-2.7,2.5,2.51,2.51,0,1,1,2.7-2.5Zm-5.17,20.6V151.29h5v16.12Z"/><path class="cls-1" d="M97.12,161c.13,2.07,2.21,3.06,4.55,3.06a13.29,13.29,0,0,0,4.45-.69l.66,3.39a15.09,15.09,0,0,1-5.83,1c-5.47,0-8.61-3.17-8.61-8.21,0-4.09,2.54-8.6,8.15-8.6,5.2,0,7.18,4,7.18,8a12.83,12.83,0,0,1-.16,2Zm5.9-3.43c0-1.22-.52-3.26-2.83-3.26-2.11,0-3,1.94-3.1,3.26Z"/><path class="cls-1" d="M110.67,156.43c0-2-.07-3.69-.13-5.14h4.35l.23,2.24h.1a5.79,5.79,0,0,1,5-2.6c3.3,0,5.77,2.2,5.77,6.95v9.53h-5v-8.94c0-2.07-.72-3.49-2.53-3.49a2.77,2.77,0,0,0-2.58,1.88,3.65,3.65,0,0,0-.16,1.25v9.3h-5Z"/><path class="cls-1" d="M142.08,167a11.42,11.42,0,0,1-4.48.76c-5.21,0-8.54-3.2-8.54-8.24,0-4.72,3.23-8.57,9.23-8.57a11.72,11.72,0,0,1,3.82.62l-.79,3.73a6.71,6.71,0,0,0-2.8-.5,4.52,4.52,0,0,0,.1,9,7.11,7.11,0,0,0,2.87-.52Z"/><path class="cls-1" d="M148.34,161c.13,2.07,2.21,3.06,4.55,3.06a13.33,13.33,0,0,0,4.45-.69l.66,3.39a15.11,15.11,0,0,1-5.84,1c-5.47,0-8.6-3.17-8.6-8.21,0-4.09,2.54-8.6,8.14-8.6,5.21,0,7.19,4,7.19,8a11.42,11.42,0,0,1-.17,2Zm5.9-3.43c0-1.22-.53-3.26-2.84-3.26-2.11,0-3,1.94-3.09,3.26Z"/><path class="cls-1" d="M174.14,146.94v4.35h3.6V155h-3.6v5.83c0,1.95.5,2.84,2,2.84a6.23,6.23,0,0,0,1.49-.13l0,3.79a10.6,10.6,0,0,1-3.23.43,5.31,5.31,0,0,1-3.79-1.39c-.92-.95-1.39-2.5-1.39-4.78V155h-2.14v-3.69h2.14v-3Z"/><path class="cls-1" d="M180.64,144h5v9.23h.06a5.53,5.53,0,0,1,2-1.68,5.79,5.79,0,0,1,2.6-.62c3.2,0,5.64,2.2,5.64,7.08v9.4h-5v-8.87c0-2.11-.72-3.56-2.6-3.56a2.65,2.65,0,0,0-2.51,1.78,3,3,0,0,0-.16,1.09v9.56h-5Z"/><path class="cls-1" d="M203.81,161c.13,2.07,2.2,3.06,4.54,3.06a13.29,13.29,0,0,0,4.45-.69l.66,3.39a15.06,15.06,0,0,1-5.83,1c-5.47,0-8.6-3.17-8.6-8.21,0-4.09,2.54-8.6,8.14-8.6,5.21,0,7.18,4,7.18,8a12.83,12.83,0,0,1-.16,2Zm5.9-3.43c0-1.22-.53-3.26-2.84-3.26-2.11,0-3,1.94-3.1,3.26Z"/><path class="cls-1" d="M224.17,145.49A40.52,40.52,0,0,1,231,145c3.1,0,5.31.59,6.79,1.78a6.39,6.39,0,0,1,2.38,5.14,6.93,6.93,0,0,1-2,5.27,10.46,10.46,0,0,1-7.22,2.34,8.56,8.56,0,0,1-1.71-.13v8h-5Zm5,10.08a7.33,7.33,0,0,0,1.68.14c2.67,0,4.32-1.36,4.32-3.6,0-2-1.42-3.26-4-3.26a9.62,9.62,0,0,0-2,.16Z"/><path class="cls-1" d="M246.22,161c.13,2.07,2.21,3.06,4.55,3.06a13.33,13.33,0,0,0,4.45-.69l.66,3.39a15.09,15.09,0,0,1-5.83,1c-5.48,0-8.61-3.17-8.61-8.21,0-4.09,2.54-8.6,8.14-8.6,5.21,0,7.19,4,7.19,8a11.42,11.42,0,0,1-.17,2Zm5.9-3.43c0-1.22-.53-3.26-2.83-3.26-2.11,0-3,1.94-3.1,3.26Z"/><path class="cls-1" d="M259.77,156.6c0-2.38,0-3.93-.13-5.31h4.28l.2,3h.13a4.69,4.69,0,0,1,4.35-3.37,5.54,5.54,0,0,1,1.06.1v4.72a7.21,7.21,0,0,0-1.36-.14,3.22,3.22,0,0,0-3.42,2.54,5.62,5.62,0,0,0-.1,1.12v8.18h-5Z"/><path class="cls-1" d="M273.77,167.41V155h-2.14v-3.69h2.14v-.63a7.48,7.48,0,0,1,2-5.4,6.61,6.61,0,0,1,4.49-1.62,11.21,11.21,0,0,1,2.63.33l-.19,3.86a5.52,5.52,0,0,0-1.62-.23c-1.65,0-2.34,1.28-2.34,2.87v.82H282V155h-3.2v12.43Z"/><path class="cls-1" d="M300,159.17c0,5.9-4.19,8.6-8.51,8.6-4.71,0-8.33-3.1-8.33-8.31s3.42-8.57,8.63-8.57C296.71,150.89,300,154.29,300,159.17Zm-11.67.16c0,2.77,1.16,4.85,3.3,4.85,2,0,3.19-2,3.19-4.88,0-2.38-.92-4.81-3.19-4.81S288.34,157,288.34,159.33Z"/><path class="cls-1" d="M303.11,156.6c0-2.38,0-3.93-.14-5.31h4.29l.2,3h.13a4.69,4.69,0,0,1,4.35-3.37,5.35,5.35,0,0,1,1.05.1v4.72a7,7,0,0,0-1.35-.14,3.23,3.23,0,0,0-3.43,2.54,6.52,6.52,0,0,0-.09,1.12v8.18h-5Z"/><path class="cls-1" d="M315.63,156.43c0-2-.07-3.69-.13-5.14h4.25l.2,2.17H320a5.61,5.61,0,0,1,4.88-2.57,4.57,4.57,0,0,1,4.42,2.77h.07a7.13,7.13,0,0,1,2.1-2,6.22,6.22,0,0,1,3.07-.79c3.1,0,5.44,2.18,5.44,7v9.5h-4.88v-8.77c0-2.34-.76-3.69-2.37-3.69a2.49,2.49,0,0,0-2.34,1.74,5.29,5.29,0,0,0-.17,1.29v9.43h-4.88v-9.07c0-2-.72-3.39-2.34-3.39a2.58,2.58,0,0,0-2.34,1.78,3.43,3.43,0,0,0-.19,1.28v9.4h-4.88Z"/><path class="cls-1" d="M357.39,163.52a20.79,20.79,0,0,0,.26,3.89h-4.52l-.29-1.62h-.1a5.8,5.8,0,0,1-4.62,2,4.93,4.93,0,0,1-5.2-4.94c0-4.19,3.75-6.17,9.46-6.17v-.2c0-.89-.46-2.11-2.94-2.11a9.07,9.07,0,0,0-4.45,1.22l-.92-3.23a13.31,13.31,0,0,1,6.26-1.45c5.38,0,7.06,3.17,7.06,7Zm-4.85-3.73c-2.64,0-4.68.63-4.68,2.54a1.8,1.8,0,0,0,2,1.91,2.76,2.76,0,0,0,2.6-1.84,3.44,3.44,0,0,0,.1-.86Z"/><path class="cls-1" d="M361.37,156.43c0-2-.06-3.69-.13-5.14h4.35l.23,2.24h.1a5.81,5.81,0,0,1,5-2.6c3.29,0,5.77,2.2,5.77,6.95v9.53h-5v-8.94c0-2.07-.73-3.49-2.54-3.49a2.75,2.75,0,0,0-2.57,1.88,3.64,3.64,0,0,0-.17,1.25v9.3h-5Z"/><path class="cls-1" d="M392.78,167a11.42,11.42,0,0,1-4.48.76c-5.21,0-8.54-3.2-8.54-8.24,0-4.72,3.23-8.57,9.23-8.57a11.83,11.83,0,0,1,3.83.62l-.8,3.73a6.71,6.71,0,0,0-2.8-.5,4.52,4.52,0,0,0,.1,9,7.08,7.08,0,0,0,2.87-.52Z"/><path class="cls-1" d="M399,161c.13,2.07,2.21,3.06,4.55,3.06a13.29,13.29,0,0,0,4.45-.69l.66,3.39a15.09,15.09,0,0,1-5.83,1c-5.47,0-8.61-3.17-8.61-8.21,0-4.09,2.54-8.6,8.15-8.6,5.2,0,7.18,4,7.18,8a12.83,12.83,0,0,1-.16,2Zm5.9-3.43c0-1.22-.52-3.26-2.83-3.26-2.11,0-3,1.94-3.1,3.26Z"/><path class="cls-2" d="M425.18,158.84a4.29,4.29,0,1,1,4.25,4.28A4.24,4.24,0,0,1,425.18,158.84Z"/><path class="cls-1" d="M443.86,145.52a44.08,44.08,0,0,1,6.76-.49c4.25,0,7,.79,9.13,2.37,2.31,1.71,3.76,4.45,3.76,8.37,0,4.25-1.55,7.19-3.66,9-2.34,1.94-5.93,2.87-10.28,2.87a44,44,0,0,1-5.71-.33Zm5,18.1a10.41,10.41,0,0,0,1.75.09c4.58,0,7.58-2.47,7.58-7.77,0-4.62-2.7-7.06-7.05-7.06a10.63,10.63,0,0,0-2.28.2Z"/><path class="cls-1" d="M471.94,146.81a2.49,2.49,0,0,1-2.7,2.5,2.51,2.51,0,1,1,2.7-2.5Zm-5.17,20.6V151.29h5v16.12Z"/><path class="cls-1" d="M475.77,163.06a9.76,9.76,0,0,0,4.31,1.18c1.52,0,2.15-.49,2.15-1.32s-.5-1.25-2.34-1.88c-3.37-1.12-4.65-2.93-4.62-4.84,0-3,2.57-5.31,6.56-5.31a10.68,10.68,0,0,1,4.52,1l-.86,3.46a8,8,0,0,0-3.49-.92c-1.22,0-1.92.49-1.92,1.28s.63,1.19,2.61,1.88c3.06,1.06,4.32,2.64,4.35,5,0,3-2.34,5.24-7,5.24a11.47,11.47,0,0,1-5.2-1.15Z"/><path class="cls-1" d="M502.2,167a11.42,11.42,0,0,1-4.48.76c-5.21,0-8.54-3.2-8.54-8.24,0-4.72,3.23-8.57,9.23-8.57a11.72,11.72,0,0,1,3.82.62l-.79,3.73a6.71,6.71,0,0,0-2.8-.5,4.52,4.52,0,0,0,.1,9,7.11,7.11,0,0,0,2.87-.52Z"/><path class="cls-1" d="M520.52,159.17c0,5.9-4.18,8.6-8.5,8.6-4.71,0-8.34-3.1-8.34-8.31s3.43-8.57,8.64-8.57C517.23,150.89,520.52,154.29,520.52,159.17Zm-11.66.16c0,2.77,1.15,4.85,3.29,4.85,2,0,3.2-2,3.2-4.88,0-2.38-.92-4.81-3.2-4.81S508.86,157,508.86,159.33Z"/><path class="cls-1" d="M527.05,151.29l2.17,7.48c.4,1.39.66,2.64.93,3.92h.1c.26-1.32.52-2.53.89-3.92l2.07-7.48h5.28l-6,16.12h-5l-5.87-16.12Z"/><path class="cls-1" d="M544.15,161c.13,2.07,2.21,3.06,4.55,3.06a13.29,13.29,0,0,0,4.45-.69l.66,3.39a15.09,15.09,0,0,1-5.83,1c-5.48,0-8.61-3.17-8.61-8.21,0-4.09,2.54-8.6,8.14-8.6,5.21,0,7.19,4,7.19,8a12.83,12.83,0,0,1-.16,2Zm5.9-3.43c0-1.22-.52-3.26-2.83-3.26-2.11,0-3,1.94-3.1,3.26Z"/><path class="cls-1" d="M557.7,156.6c0-2.38,0-3.93-.13-5.31h4.28l.2,3h.13a4.69,4.69,0,0,1,4.35-3.37,5.54,5.54,0,0,1,1.06.1v4.72a7.1,7.1,0,0,0-1.35-.14,3.22,3.22,0,0,0-3.43,2.54,5.62,5.62,0,0,0-.1,1.12v8.18h-5Z"/><path class="cls-1" d="M582.48,146.94v4.35h3.6V155h-3.6v5.83c0,1.95.5,2.84,2,2.84a6.09,6.09,0,0,0,1.48-.13l0,3.79a10.6,10.6,0,0,1-3.23.43,5.31,5.31,0,0,1-3.79-1.39c-.93-.95-1.39-2.5-1.39-4.78V155h-2.14v-3.69h2.14v-3Z"/><path class="cls-1" d="M589,144h5v9.23h.07a5.53,5.53,0,0,1,2-1.68,5.79,5.79,0,0,1,2.6-.62c3.2,0,5.64,2.2,5.64,7.08v9.4h-5v-8.87c0-2.11-.73-3.56-2.61-3.56a2.64,2.64,0,0,0-2.5,1.78,3,3,0,0,0-.17,1.09v9.56h-5Z"/><path class="cls-1" d="M612.14,161c.13,2.07,2.21,3.06,4.55,3.06a13.29,13.29,0,0,0,4.45-.69l.66,3.39a15.09,15.09,0,0,1-5.83,1c-5.47,0-8.61-3.17-8.61-8.21,0-4.09,2.54-8.6,8.14-8.6,5.21,0,7.19,4,7.19,8a12.83,12.83,0,0,1-.16,2Zm5.9-3.43c0-1.22-.52-3.26-2.83-3.26-2.11,0-3,1.94-3.1,3.26Z"/><path class="cls-1" d="M636.53,167.41l-7.12-22.22h5.51l2.7,9.39c.76,2.67,1.45,5.18,2,7.95h.1c.56-2.67,1.25-5.31,2-7.85l2.83-9.49h5.34l-7.48,22.22Z"/><path class="cls-1" d="M664.12,163.52a20.79,20.79,0,0,0,.26,3.89h-4.51l-.3-1.62h-.1a5.78,5.78,0,0,1-4.61,2,4.94,4.94,0,0,1-5.21-4.94c0-4.19,3.76-6.17,9.46-6.17v-.2c0-.89-.46-2.11-2.94-2.11a9.1,9.1,0,0,0-4.45,1.22l-.92-3.23a13.31,13.31,0,0,1,6.26-1.45c5.38,0,7.06,3.17,7.06,7Zm-4.85-3.73c-2.63,0-4.68.63-4.68,2.54a1.8,1.8,0,0,0,2,1.91,2.76,2.76,0,0,0,2.6-1.84,3.44,3.44,0,0,0,.1-.86Z"/><path class="cls-1" d="M668.1,144h5v23.41h-5Z"/><path class="cls-1" d="M692.36,162.23c0,2.11.07,3.82.13,5.18h-4.35l-.23-2.28h-.1a5.73,5.73,0,0,1-5,2.64c-3.3,0-5.67-2-5.67-7v-9.46h5V160c0,2.34.76,3.75,2.54,3.75a2.65,2.65,0,0,0,2.5-1.74,2.56,2.56,0,0,0,.2-1.09v-9.59h5Z"/><path class="cls-1" d="M700.24,161c.13,2.07,2.21,3.06,4.55,3.06a13.37,13.37,0,0,0,4.45-.69l.65,3.39a15,15,0,0,1-5.83,1c-5.47,0-8.6-3.17-8.6-8.21,0-4.09,2.54-8.6,8.14-8.6,5.21,0,7.18,4,7.18,8a11.66,11.66,0,0,1-.16,2Zm5.9-3.43c0-1.22-.53-3.26-2.84-3.26-2.11,0-3,1.94-3.09,3.26Z"/><path class="cls-3" d="M243.92,27.71H140.42s-22.75,3-31,9.57S94.93,51.73,94.08,60.66a23.45,23.45,0,0,0,9.14,20.61c6.18,4.62,14.45,5.36,14.45,5.36h23.6l5.1-14.29-19.77-.21L137,43.23l101,.21-21.46,62.91H84.3s-33.58,0-55.68-12.11-31-25.72-26.57-44S26.28,19.85,46.47,11.56,81.75,2.2,93,1.14L104.28.08H253.91Z"/><polygon class="cls-4" points="305.93 28 278.6 106.43 359.08 106.43 386.6 28 708.27 28 718.6 0 253.91 0.16 243.92 27.79 305.93 28"/><polygon class="cls-3" points="384.94 87.22 377.6 106.77 680.6 106.77 687.93 87.22 384.94 87.22"/><path class="cls-5" d="M423.28,72.58l-6.43-14.64h10.66a4.82,4.82,0,0,0,3.34-1,3.72,3.72,0,0,0,1-5,2.33,2.33,0,0,0-2.06-1.08l-14.57,0-6.68,21.78H390.2l10.11-29.1H441.9s6.13.31,7.67,4.23c1.61,4.1.66,8.16-3.81,10.32a24.89,24.89,0,0,1-9.25,2.17L442,72.58Z"/><path class="cls-5" d="M495.83,43.48H468.39l-26.06,29.1h18.25l6.75-7.47H487.7l3.75,7.47h18ZM473.83,58l7.43-8.23L485,58Z"/><path class="cls-5" d="M636.33,43.48H608.89l-26.06,29.1h18.25l6.75-7.47H628.2L632,72.58h18ZM614.33,58l7.43-8.23L625.45,58Z"/><path class="cls-5" d="M560.16,45.48a11.13,11.13,0,0,0-5.93-2H521.1l-10.69,29.1h35.82s8,.34,13.31-4.72,5.32-9.35,5.56-13.32S563.48,47.61,560.16,45.48ZM545.56,62.6c-2.21,1.9-6.29,2-6.29,2H528.71l4.93-13.88h8.57a6.84,6.84,0,0,1,6.12,4.14C549.58,57.66,547.56,60.88,545.56,62.6Z"/><polygon class="cls-5" points="573.35 43.48 562.68 72.58 580.93 72.58 591.18 43.48 573.35 43.48"/><polygon class="cls-5" points="678.71 43.48 671.11 64.71 695.77 64.71 692.9 72.58 650.49 72.58 660.64 43.48 678.71 43.48"/></g></g></svg>