<svg xmlns="http://www.w3.org/2000/svg" viewBox="0 0 503.92 105.1"><defs><style>.cls-1{fill:#9a9b9c;}.cls-2{fill:#ec6608;}</style></defs><g id="Layer_2" data-name="Layer 2"><g id="Layer_1-2" data-name="Layer 1"><path class="cls-1" d="M198.41,89.49l1.64-5.61c1.71-5.95,5.56-8,11.13-8,1.93,0,4.92.56,6,1.26l2.35-8L223.89,68l-8.26,28.77h-3.69l0-1.6a16.62,16.62,0,0,1-7.65,2C198.62,97.18,197.21,93.62,198.41,89.49Zm17.86-9.22a10.26,10.26,0,0,0-4.79-1.15c-3.57,0-6.15,1-7.35,5.13l-1.43,4.94c-.93,3.09-.14,4.69,2.77,4.69a17.59,17.59,0,0,0,7.4-1.9Z"/><path class="cls-1" d="M238.29,79.6a17.64,17.64,0,0,0-7.91,2.27l-4.26,14.94H222l5.9-20.51h3.65l-.2,2.08a15,15,0,0,1,8-2.53Z"/><path class="cls-1" d="M241.9,96.81h-4.1l5.9-20.51h4.1Zm7-24.34h-4.1L246,68.34h4.1Z"/><path class="cls-1" d="M258,96.81h-4.76L251.53,76.3h4.23l.62,12.63c0,1.3.05,2.64.13,4.39h0c1.11-1.75,1.87-3.09,2.74-4.39l7.9-12.63h4.39Z"/><path class="cls-1" d="M273.14,96.81H269l5.9-20.51H279Zm7-24.34H276l1.17-4.13h4.1Z"/><path class="cls-1" d="M297.54,96.81h-4.1l4-13.86c.71-2.42.61-3.76-2.1-3.76a17.16,17.16,0,0,0-7.27,1.9l-4.48,15.72h-4.1l5.9-20.51H289l0,1.59a17.29,17.29,0,0,1,7.45-2c5,0,6.41,2.53,5.31,6.32Z"/><path class="cls-1" d="M304.71,89.12,306.19,84c1.71-5.87,5.48-8.1,10.89-8.1,2.13,0,4.88.59,6.26,1.82l.72-1.37h3.65l-6.22,21.55c-1.48,5.06-4.23,7.25-11.48,7.25a31.61,31.61,0,0,1-5.7-.56l.93-3.16a24.36,24.36,0,0,0,4.92.53c4.59,0,6.38-.93,7.34-4.43l.55-2A18.17,18.17,0,0,1,310.6,97C304.86,97,303.44,93.47,304.71,89.12Zm17.63-8.48c-.83-.93-3.08-1.52-5.5-1.52-2.75,0-5.33,1.08-6.53,5.2L309,88.86c-1,3.31-.32,4.87,2.92,4.87A19.32,19.32,0,0,0,319,92.2Z"/><path class="cls-1" d="M358.93,87.67H344.17l-.22.82c-1,3.31-.53,5.46,4.84,5.46a23.88,23.88,0,0,0,6.55-.89l-.93,3.08a19,19,0,0,1-6.27,1c-7.25,0-9.9-3.08-8-9.59l.66-2.3c2-6.84,6.27-9.44,11.68-9.44,5.91,0,9.06,2.82,7,10.11Zm-3.15-2.94.06-.26c.84-3,.16-5.46-3.86-5.46-3.81,0-6,2.41-6.88,5.46l-.06.26Z"/><path class="cls-1" d="M391.1,96.81H387l4-14c.72-2.41.31-3.57-2-3.57a15,15,0,0,0-6.29,1.9l-.17.67-4.31,15h-4.1l4-14c.71-2.41.3-3.57-2.07-3.57a14.57,14.57,0,0,0-6.25,1.9l-4.48,15.72h-4.1l5.9-20.51h3.64l0,1.59a15.68,15.68,0,0,1,6.87-2c2.87,0,4.5.82,5,2.38a19.26,19.26,0,0,1,7.84-2.38c4.67,0,6,2.08,4.89,5.91Z"/><path class="cls-1" d="M418.07,88c-1.71,6-5.81,9.21-12,9.21s-9.08-3.53-7.37-9.51l.76-2.6c1.71-6,5.81-9.22,12-9.22s9.13,3.53,7.41,9.51Zm-3.32-2.75c1.26-4.43-.41-6.14-3.86-6.14s-6.07,1.71-7.34,6.14l-.76,2.6c-1.27,4.42.45,6.13,3.81,6.13s6.11-1.71,7.38-6.13Z"/><path class="cls-1" d="M437.3,79.53h-5.86l-3.31,11.56c-.55,1.93-.33,2.75,1.4,2.75a11.94,11.94,0,0,0,3.85-.6l-.92,3.09a10.63,10.63,0,0,1-4.41.85c-3.61,0-5.23-1.89-4.3-5.16l3.59-12.49h-3.61l1-3.23h3.61l1.21-4.24,4.39-1.12-1.5,5.36h5.86Z"/><path class="cls-1" d="M441.15,96.81h-4.1L443,76.3h4.1Zm7-24.34h-4.1l1.17-4.13h4.1Z"/><path class="cls-1" d="M468.41,88c-1.71,6-5.8,9.21-12,9.21s-9.09-3.53-7.38-9.51l.77-2.6c1.71-6,5.8-9.22,11.95-9.22s9.13,3.53,7.42,9.51Zm-3.32-2.75c1.27-4.43-.41-6.14-3.85-6.14s-6.07,1.71-7.34,6.14l-.77,2.6c-1.27,4.42.45,6.13,3.81,6.13s6.12-1.71,7.38-6.13Z"/><path class="cls-1" d="M489.12,96.81H485L489,83c.72-2.42.61-3.76-2.1-3.76a17.23,17.23,0,0,0-7.27,1.9l-4.48,15.72H471l5.9-20.51h3.65l0,1.59a17.29,17.29,0,0,1,7.45-2c5,0,6.42,2.53,5.32,6.32Z"/><path d="M483.21,33.8,493.6,58.3H476.1l-9.41-25.53L459.48,58.3H442.65L457.34,7.18h16.81l-6.46,22.17S478,23.92,486.13,7.18h17.79C495.38,25.5,483.21,33.8,483.21,33.8Z"/><path d="M274,21.84,263.67,58.3H246.85l9.31-33c.78-2.84,1.31-5.12.19-6.19S253.88,18,252.07,18l-8.73.26L231.84,58.3H215L229.66,7.2c2-.1,16.94-.81,31.79-1.15,5.7-.15,9.62,1.13,11.7,3.8S275.47,16.53,274,21.84Z"/><path d="M314,33.8l10.38,24.5h-17.5l-9.41-25.53L290.25,58.3H273.42L288.11,7.18h16.81l-6.46,22.17s10.32-5.43,18.44-22.17h17.8C326.16,25.5,314,33.8,314,33.8Z"/><path d="M383.2,12.25C380.06,8.1,373.9,6,364.9,6,347.45,6,336.37,13.78,332,29.11l-2.15,7.46c-2.09,7.26-1.67,12.87,1.21,16.66,3.15,4.15,9.31,6.25,18.31,6.25,17.45,0,28.53-7.78,32.92-23.1l2.15-7.47C386.5,21.66,386.09,16.05,383.2,12.25ZM367.36,29.76l-1.77,6.16c-2.35,8.14-6.11,11.62-12.61,11.62-2.93,0-4.88-.71-6-2.15-1.42-1.87-1.46-4.94-.11-9.66l1.78-6.17C351,21.43,354.77,18,361.27,18c2.92,0,4.88.7,6,2.14C368.68,22,368.71,25,367.36,29.76Z"/><path d="M442.28,12.25C439.14,8.1,433,6,424,6c-17.46,0-28.54,7.78-32.93,23.11l-2.14,7.46c-2.08,7.26-1.68,12.87,1.21,16.66,3.15,4.15,9.31,6.25,18.31,6.25,17.45,0,28.53-7.78,32.92-23.1l2.15-7.47C445.58,21.66,445.18,16.05,442.28,12.25ZM426.44,29.76l-1.77,6.16c-2.34,8.14-6.11,11.62-12.61,11.62-2.93,0-4.89-.71-6-2.15-1.43-1.87-1.46-4.94-.12-9.66l1.77-6.17C410.08,21.43,413.85,18,420.35,18c2.92,0,4.88.7,6,2.14C427.76,22,427.79,25,426.44,29.76Z"/><path d="M215.47,12.77c-1.29-2.39-3.65-4.09-7.23-5.21a41.26,41.26,0,0,0-10.38-1.47c-.15,0-15.07-.24-24.06,1.51l-2.86,10.15a176.34,176.34,0,0,1,21.37-1.21c4,.14,5.94.66,6.84,1.88.77,1,.84,2.61,0,5.37l-.55,2h-6.38c-17.8,0-28.3,2.28-31.56,14.25-1.25,4.6-.67,9.43,1.94,12.82,2.79,3.65,6.57,5.43,13.05,5.43h30.06l9.71-33.4C217,19.61,217,15.65,215.47,12.77ZM192.18,47.89l-8.21.23c-2.05,0-4,.09-5.48-1.54a5.43,5.43,0,0,1-1.33-4.71c1.1-5.18,7.05-5.95,12-5.95h6.53Z"/><polygon points="146.57 7.19 141.07 26.51 126.01 26.51 131.51 7.19 114.57 7.19 99.94 58.3 116.84 58.3 122.68 38.15 137.74 38.15 131.91 58.3 148.88 58.3 163.5 7.19 146.57 7.19"/><path class="cls-2" d="M90.05,0A53.26,53.26,0,0,1,61.92,41.38a.4.4,0,0,1-.46-.66A56.21,56.21,0,0,0,81.88,0H66.81A41.91,41.91,0,0,1,44,31.75a.41.41,0,0,1-.46-.66A44.9,44.9,0,0,0,58.79,0H43.67a32.28,32.28,0,0,1-8.45,16.31C25,27.48,8.52,28.72.52,28.1c0,0-.37-.07-.49.23s.23.53.23.53c13.3,7.46,23.89,14.53,43.17,28.71,4.74,3.49,9.21,4.49,13.92,3.39,30.06-7,47.55-38.13,47.74-61Z"/></g></g></svg>