<svg xmlns="http://www.w3.org/2000/svg" viewBox="0 0 156.66 48.78"><defs><style>.cls-1{fill:#005baa;}.cls-2{fill:#fff;}.cls-3{fill:#ffe600;}.cls-4{fill:#231f20;}</style></defs><g id="Layer_2" data-name="Layer 2"><g id="Layer_1-2" data-name="Layer 1"><path class="cls-1" d="M30.65,43.09h1l.1,4.32h-.88v-1H29l-.72,1h-1m2.19-1.68h1.35l0-1.88h0Z"/><path class="cls-1" d="M39,42.76h.86l-.7,1.77v0h0v0a1.35,1.35,0,0,1,.93-.4c.8,0,1.1.53,1,1.29a2.24,2.24,0,0,1-2,2,.74.74,0,0,1-.85-.52h0l-.17.45H37.3m2.94-1.94c.07-.39-.09-.68-.48-.68-.57,0-1,.74-1.09,1.3-.07.41,0,.75.43.75C39.8,46.84,40.16,46,40.24,45.47Z"/><path class="cls-1" d="M43.88,46.07c-.09.59.19.8.77.8a2.69,2.69,0,0,0,1-.22l-.21.65a4,4,0,0,1-1.06.18c-.93,0-1.48-.44-1.33-1.39a2.34,2.34,0,0,1,2.15-1.94c.79,0,1.25.4,1.12,1.21a3.12,3.12,0,0,1-.19.71m-.65-.57a1.42,1.42,0,0,0,.05-.22c.06-.34-.09-.53-.44-.53a1.13,1.13,0,0,0-1,.75Z"/><path class="cls-1" d="M48.79,44.22h.61l.25-.66,1-.29-.36.95H51l-.22.6H50l-.53,1.4a1.37,1.37,0,0,0-.08.31.24.24,0,0,0,.27.31,1.12,1.12,0,0,0,.42-.08l-.25.65a2.54,2.54,0,0,1-.47.07c-.57,0-.93-.22-.83-.83a3.73,3.73,0,0,1,.22-.75l.41-1.08h-.6"/><path class="cls-1" d="M52.9,44.22h.61l.25-.66,1-.29-.36.95h.75l-.23.6h-.75l-.53,1.4a1.3,1.3,0,0,0-.09.31.25.25,0,0,0,.27.31,1.08,1.08,0,0,0,.42-.08l-.25.65a2.57,2.57,0,0,1-.46.07c-.57,0-.94-.22-.84-.83a3.78,3.78,0,0,1,.23-.75l.41-1.08h-.61"/><path class="cls-1" d="M57.25,46.07c-.1.59.19.8.77.8a2.64,2.64,0,0,0,1-.22l-.21.65a3.86,3.86,0,0,1-1.06.18c-.92,0-1.48-.44-1.33-1.39a2.34,2.34,0,0,1,2.15-1.94c.8,0,1.26.4,1.13,1.21a3.78,3.78,0,0,1-.2.71m-.64-.57a1.42,1.42,0,0,0,0-.22c0-.34-.1-.53-.45-.53a1.14,1.14,0,0,0-1,.75Z"/><path class="cls-1" d="M62.34,44.65c0-.14.09-.28.14-.43h.8l-.21.6h0a1.39,1.39,0,0,1,1.06-.67,1.09,1.09,0,0,1,.31,0l-.31.81a1,1,0,0,0-.31-.05c-.59,0-1,.52-1.15,1l-.54,1.43h-.83"/><polyline class="cls-1" points="69.63 44.22 70.47 44.22 70.31 46.61 70.32 46.61 71.9 44.22 72.83 44.22 72.62 46.61 72.63 46.61 74.26 44.22 75.12 44.22 72.81 47.41 71.86 47.41 72.08 44.97 72.06 44.97 70.49 47.41 69.54 47.41"/><path class="cls-1" d="M78.2,46.92h0a1.5,1.5,0,0,1-1.13.56c-.59,0-1-.32-.85-.91.17-1,1.37-1.13,2.16-1.13h.3a1.31,1.31,0,0,0,.06-.27c0-.32-.28-.42-.58-.42a2.79,2.79,0,0,0-1.09.25l.22-.66a3.44,3.44,0,0,1,1.13-.19c.64,0,1.21.23,1.09,1-.07.43-.58,1.68-.76,2.28H78m-.64-.54c.62,0,.89-.42,1.1-.94H78.2c-.41,0-1.1.07-1.19.61C77,46.76,77.17,46.87,77.39,46.87Z"/><path class="cls-1" d="M82.88,44.22l-.08,2.37h0l1.67-2.37h.92l-2.78,3.67a1.76,1.76,0,0,1-1.43.89,2.1,2.1,0,0,1-.61-.09l.29-.63a.8.8,0,0,0,.36.08c.25,0,.46-.13.82-.58l0-3.34"/><path class="cls-1" d="M91.06,44.82H90.4l.23-.6h.66c.3-.81.69-1.53,1.66-1.53a1.76,1.76,0,0,1,.51.08l-.29.62a.51.51,0,0,0-.25-.06c-.47,0-.66.56-.79.89h.75l-.23.6H91.9l-1,2.59h-.84"/><path class="cls-1" d="M97.71,45.54a2.25,2.25,0,0,1-2.23,1.94A1.14,1.14,0,0,1,94.24,46a2.26,2.26,0,0,1,2.22-1.88,1.12,1.12,0,0,1,1.25,1.39m-.88,0c.07-.41,0-.76-.51-.76-.67,0-1.12.72-1.21,1.3-.07.42.06.75.54.75C96.3,46.84,96.75,46.1,96.83,45.55Z"/><path class="cls-1" d="M100.41,44.65l.15-.43h.8l-.21.6h0a1.43,1.43,0,0,1,1.06-.67,1.12,1.12,0,0,1,.32,0l-.31.81a1,1,0,0,0-.31-.05,1.35,1.35,0,0,0-1.16,1l-.53,1.43h-.84"/><polyline class="cls-1" points="104.29 44.22 105.13 44.22 104.98 46.61 104.99 46.61 106.56 44.22 107.5 44.22 107.29 46.61 107.3 46.61 108.93 44.22 109.78 44.22 107.48 47.41 106.53 47.41 106.74 44.97 106.73 44.97 105.16 47.41 104.21 47.41"/><path class="cls-1" d="M112.87,46.92h0a1.46,1.46,0,0,1-1.13.56c-.58,0-.94-.32-.85-.91.17-1,1.38-1.13,2.17-1.13h.29a.9.9,0,0,0,.07-.27c0-.32-.28-.42-.58-.42a2.88,2.88,0,0,0-1.1.25l.23-.66a3.38,3.38,0,0,1,1.12-.19c.65,0,1.22.23,1.1,1-.07.43-.59,1.68-.76,2.28h-.71m-.65-.54c.63,0,.89-.42,1.11-.94h-.3c-.41,0-1.09.07-1.18.61C111.65,46.76,111.84,46.87,112.05,46.87Z"/><path class="cls-1" d="M116.91,44.65l.15-.43h.8l-.21.6h0a1.43,1.43,0,0,1,1.06-.67,1.12,1.12,0,0,1,.32,0l-.31.81a1,1,0,0,0-.31-.05,1.35,1.35,0,0,0-1.16,1l-.53,1.43h-.84"/><path class="cls-1" d="M124.74,42.76l-1.51,3.94-.23.71h-.78l.16-.47h0a1.44,1.44,0,0,1-1.14.54c-.76,0-1-.63-.9-1.32a2.21,2.21,0,0,1,2-2,1.06,1.06,0,0,1,.93.45l.7-1.84m-2.69,3.32c0,.32,0,.76.4.76.61,0,1.09-.71,1.18-1.3.06-.37-.06-.75-.48-.75C121.7,44.79,121.29,45.61,121.21,46.08Z"/><polyline class="cls-2" points="155.86 14.05 2.12 14.05 2.12 41.42 156.66 41.42 156.66 14.05"/><rect class="cls-1" x="2.93" y="14.85" width="152.93" height="25.76"/><polyline class="cls-3" points="127.44 35.57 2.93 35.57 2.93 37.18 126.85 37.18"/><path class="cls-2" d="M49,20.84,44.93,27s.25-3.23.32-4c0-.6,0-2.17-1.47-2.17H37.32l-4.23,11.5h5L41.21,24l-.65,8.32h4.49l5.5-8.17-3,8.17h5.08l4.23-11.5"/><path class="cls-2" d="M76.49,32.13a30,30,0,0,1-4.2.47c-3.61.1-6.77-1.35-6.79-4,0-4.52,4.52-7,7.89-7.69a17.45,17.45,0,0,1,7.33.07l-1.69,4a2.27,2.27,0,0,0-2.23-1.14,6.85,6.85,0,0,0-3,.65c-1.7.78-3.19,3.28-.77,4.25,1.33.53,3,.11,4.81-.18"/><polyline class="cls-2" points="128.3 32.34 122.73 32.34 126.96 20.84 132.53 20.84"/><polyline class="cls-2" points="61.41 32.34 55.84 32.34 60.07 20.84 65.64 20.84"/><polyline class="cls-2" points="91.47 20.84 89.93 24.98 87.13 24.98 88.65 20.84 83.34 20.84 79.11 32.34 84.41 32.34 85.86 28.45 88.66 28.45 87.22 32.34 92.52 32.34 96.77 20.84"/><polyline class="cls-2" points="116.98 28.52 119.81 20.84 114.39 20.84 110.15 32.34 121.03 32.34 122.44 28.52"/><path class="cls-2" d="M146.27,20.84l-2.91,7.89c0-.79.2-3.93.3-5.74a2.2,2.2,0,0,0-.48-1.69,1.55,1.55,0,0,0-1-.46H135.7l-4.23,11.5h4.7l3-8.14-.36,8.14h7.88l4.24-11.5"/><polyline class="cls-2" points="102.07 29.24 102.55 27.96 108.6 27.96 109.64 25.13 103.59 25.13 104.05 23.85 110.4 23.85 111.52 20.84 99.91 20.84 95.67 32.34 107.42 32.34 108.56 29.24"/><path class="cls-4" d="M33.56,26.08c.32-.48,0-1.49-.74-2.32s-1.52-1-1.57-1.37a2.69,2.69,0,0,0-1.37-3.78,2.74,2.74,0,0,0-.95-2.23,3.41,3.41,0,0,0-.77-3.82c.56-2.4-1.86-3.75-3.18-3.87a5.68,5.68,0,0,0-2.66-.87,3,3,0,0,0-.38-3.76,3.18,3.18,0,0,0-2.21-3c-.44-1.11-2.91-.93-3.2.1A3.46,3.46,0,0,0,14.4,4.64a2.84,2.84,0,0,0,0,3.58,7.26,7.26,0,0,0-2.57.48h0a3.47,3.47,0,0,0-2-.32A4,4,0,0,0,8.89,8a3,3,0,0,0-1-.93A2.43,2.43,0,0,0,6.63,5.58a2.81,2.81,0,0,0-.31-1.41,1.87,1.87,0,0,1-.14-1.42.7.7,0,0,0-.11-1,1.13,1.13,0,0,0-1.79,0C3.53.44,2.68.08,2.17.26,1.5-.26.44.06.46.7,0,1-.28,1.15.4,2.39.27,5,.55,5.76,2.26,7.16A2.17,2.17,0,0,0,2,9.66a3.55,3.55,0,0,0,1.36,3.07,4,4,0,0,0,3.11,3.08,4.08,4.08,0,0,0,3,1.78A3.26,3.26,0,0,0,10,19,4.46,4.46,0,0,0,10,21.86a3.63,3.63,0,0,0-.7,3.49,4.21,4.21,0,0,0-.59,4.32,3,3,0,0,0-.4.8,3.57,3.57,0,0,0-1.61,1.91,4.52,4.52,0,0,0,0,2.42A3.18,3.18,0,0,0,7,39.57,12.46,12.46,0,0,1,4.68,43.2a1.64,1.64,0,0,0,0,2.51,4,4,0,0,0,2.78,1.54c1.89.08,3.18-.33,3.39-1.68a12.18,12.18,0,0,0-.44-2.81,4.82,4.82,0,0,1,.48-2,3.31,3.31,0,0,0,2.7-2.88,3.41,3.41,0,0,0,1.77-3.8,2.37,2.37,0,0,0,.44-.9,3.2,3.2,0,0,0,.71,1.61A3.43,3.43,0,0,0,17.84,39c-1.9,2.68.15,4,.69,4.55s.74,1.79,1.81,2.17,3.89,0,4.47-1.24c.14-.32.28-.68.12-.92,0-.9-.55-1.55-1.57-2.13s-1.11-.47-1.66-2.2a3.82,3.82,0,0,0,2-3.67c1.24-1.53,1.17-2.85.49-3.76a2.7,2.7,0,0,0,0-1.73,3.79,3.79,0,0,0,1.1-3.85,3.77,3.77,0,0,0,.59-3.05,2.52,2.52,0,0,0,2.31,1.11s.09.29.13.41c-.27.51-.15,1.13.58,1.66a.93.93,0,0,0,.38.56c0,.25.61,1.26,1.35.72l.87-.56c.62.57,2.21.12,2.05-.94"/><path class="cls-2" d="M26.35,21c2-.17,3.76-2.35,2-4a3.12,3.12,0,0,1-1.15.91,4.06,4.06,0,0,1-1,2A9.69,9.69,0,0,1,26.35,21"/><path class="cls-2" d="M29.55,19.36a3.73,3.73,0,0,1-3.23,2.15c-.21,1,1.13,2.59,3.15,1.69a2.1,2.1,0,0,0,.08-3.84"/><path class="cls-2" d="M29,24.84a.55.55,0,0,0,.12.77,2.8,2.8,0,0,1,.24-.64c-.13-.17-.29-.2-.36-.13"/><path class="cls-2" d="M30.25,25.78c-.12-.23-.05-.5-.42-.63s-.41,1.08-.11,1a1.8,1.8,0,0,1,.53-.41"/><path class="cls-2" d="M30.77,26c-.51.16-.92.55-.73.87.1.16.16.15.48-.05s.51-.37.57-.41a1.28,1.28,0,0,0-.32-.41"/><path class="cls-2" d="M31.27,23.58a2.17,2.17,0,0,1-.63-.59,4.37,4.37,0,0,1-1.62.94,3.65,3.65,0,0,0,.19.51,1,1,0,0,1,.44.33.73.73,0,0,1,.88.59c.24.16.7.33.84.52.63.81,1.1.67,1.24.56.55-.43-.2-.8-.62-1.32a5.06,5.06,0,0,1-.81-1.32c0-.08.16,0,.26.14a15.58,15.58,0,0,0,1.34,1.45,3,3,0,0,0-1.51-1.81"/><path class="cls-2" d="M19,21.77c7.38-.08,8.25-4.47,7.3-6.16C24,18,16.48,19.29,12.76,16.35a3.82,3.82,0,0,1-2.43,1.1c.26,2.22,4.17,4.36,8.67,4.32"/><path class="cls-2" d="M14,12.56a5.92,5.92,0,0,1-.78,3.26c.67.53,2.09,1.53,5.29,1.58,4.81.08,9.92-2.27,7.05-6.18-1.28,1.58-7.35,3-11.56,1.34"/><path class="cls-2" d="M7.63,12A2.78,2.78,0,0,0,8.3,8.59,2,2,0,0,0,7.82,8c-.29,2.06-3.14,3.61-5,2.27A2.9,2.9,0,0,0,7.63,12"/><path class="cls-2" d="M10,14c1.68-1.89,0-4.84-.83-5a3.57,3.57,0,0,1-4.86,4A3.4,3.4,0,0,0,10,14"/><path class="cls-2" d="M7.61,15.77c1.51,1.58,5.45,1.46,5.7-2.2.17-2.45-.92-3.84-2.69-4.31,2.08,3.84-.34,6.47-3,6.51"/><path class="cls-2" d="M10.76,19.64c-.69,4.21,4.89,5.57,8.24,5.45,5.61-.2,6.86-2.94,6.6-4.55C22,23.32,14.38,23,10.76,19.64"/><path class="cls-2" d="M13.63,28.49c3,.68,5.42-.76,5.38-2.76-1.46,0-6.17-.06-8.41-3.21-1.56,2.16.25,5.22,3,6"/><path class="cls-2" d="M17.73,28.6a5.92,5.92,0,0,1-7.88-2.5c-2,3.21,1.38,6,3.82,5.93,3-.15,3.92-2.08,4.06-3.43"/><path class="cls-2" d="M9.36,30.32a2.92,2.92,0,0,0,1.46,4c2.64,1,4.42-.72,4.3-2a5.43,5.43,0,0,1-5.76-2"/><path class="cls-2" d="M7.22,35.5c-1.21,1.06-.36,3.73,1.5,4.38,2.66.92,3.79-.85,4-1.84A4.63,4.63,0,0,1,7.22,35.5"/><path class="cls-2" d="M10.66,34.83a3.89,3.89,0,0,1-2.34-3.3c-2,2-.33,5.2,1.53,5.85,3.73,1.3,5.05-1.85,4.74-2.83a4,4,0,0,1-3.93.28"/><path class="cls-2" d="M24.05,44.09l.1.07c-.28.63-2.53,1.14-3.45.71-1.08-.5-.91-1.11-1.6-1.76-1.53-1.45-1.32-2-1.1-2.86a3,3,0,0,1,.61-1,3.1,3.1,0,0,0,2.42.09l.09.4a9.52,9.52,0,0,0-1.27.22l.18.52a8,8,0,0,1,1.24-.2s.14.4.19.51a5.35,5.35,0,0,0-1.18.23l.17.5a4.37,4.37,0,0,1,1.44-.2c.61.59,3.16,1.23,1.93,2.5a4,4,0,0,1-2.58.66l-.06.13a3.08,3.08,0,0,0,2.87-.5"/><path class="cls-2" d="M22.81,36.05a4,4,0,0,1-2.63.82,3.94,3.94,0,0,1-3-1.45,2.7,2.7,0,0,0,2.63,3.52,2.63,2.63,0,0,0,3-2.89"/><path class="cls-2" d="M20.14,36.32c3.14,0,4.13-2.63,3.52-3.78-1.79,2.2-6,1.76-6.76-1-1.14,1.9.69,4.74,3.24,4.75"/><path class="cls-2" d="M20.56,33.41c1.57,0,3.3-1.11,2.89-3a4.9,4.9,0,0,1-5.56-.1,6.08,6.08,0,0,1-.53.82c.2,1.42,1.72,2.28,3.2,2.29"/><path class="cls-2" d="M18.62,28l-.19.16a5.91,5.91,0,0,1-.29,1.67c2.17,1.87,6.74.74,6.44-3.05a6,6,0,0,1-6,1.22"/><path class="cls-2" d="M19.68,25.71a3.2,3.2,0,0,1-.64,1.9c2.83.82,6.33-.63,6.1-4a8.25,8.25,0,0,1-5.46,2.06"/><path class="cls-2" d="M5.59,10c2.08-.94,1.93-3.15.68-3.66-.27.26-.24,1-.22,1.11,0,.35-.5.54-.58.44s.26-.47.07-1,.37-.76.37-1.51a4.46,4.46,0,0,0-.42-1.31,2.6,2.6,0,0,1,.08-1.76c-.18-.16-.47-.41-.75,0a1.91,1.91,0,0,0,0,1.84s-.37,0-.56.61c0,0-.15.21-.15.21H4a1.39,1.39,0,0,1,.18-1A4.24,4.24,0,0,1,4,2.8C3.63,1.91,3,1,2.51,1a21,21,0,0,1,1.17,2.1c.16.38-.18.45-.18.45A10,10,0,0,0,1.94,1c-.3-.3-.64-.4-.75-.21a1.2,1.2,0,0,1,.43.37,22.07,22.07,0,0,1,1.46,2.6s-.08.1-.17.08-.36-.31-.6-.86a9.88,9.88,0,0,0-1-1.51A.35.35,0,0,0,.78,1.4a3.63,3.63,0,0,1,.35.76A.83.83,0,0,1,2,2.8a5.54,5.54,0,0,0,.39,1.63l-.29.2a5.19,5.19,0,0,1-.45-1.77.46.46,0,0,0-.36-.35c-.11,0-.13,0-.14.12-.09,2.17,0,2.72,2,4.23a2,2,0,0,1,.49.66.84.84,0,0,0,.85.58l.18.18a.94.94,0,0,1-1.18-.06L3,7.6C1.67,9,3.47,11,5.59,10"/><path class="cls-2" d="M7.82,40a20.28,20.28,0,0,1-2.48,3.78,1.14,1.14,0,0,0,0,1.65A3.22,3.22,0,0,0,8.48,46.5v-.13a3,3,0,0,1-2.81-1.15l.09-.09a4,4,0,0,0,4,.44A.65.65,0,0,0,10,45c-.07-.58-.4-1.56-.46-2.12A5.49,5.49,0,0,1,10,40.68c-.56,0-1.85-.14-2.19-.69"/><path class="cls-2" d="M25.85,10.53a3.4,3.4,0,0,1,1.22,2.62A2.26,2.26,0,0,0,25.8,9.81a.93.93,0,0,1,.05.72"/><path class="cls-2" d="M27.38,16.9c1.88-1.12.65-3.44.35-3.63a5.11,5.11,0,0,1-1,1.66,3.17,3.17,0,0,1,.66,2"/><path class="cls-2" d="M13.86,11.8a10.67,10.67,0,0,0,4.36.86c4,0,6.78-1.15,7-2.35.18-1-1.66-1.61-3.65-1.72a1.42,1.42,0,0,1-.79.43c-.14,0-.23-.1-.07-.19s.59-.41.27-1c.21,0,.94-.3,1-1.56a2.07,2.07,0,0,0-.93-1.9s-.17-.19,0-.22a2.42,2.42,0,0,0-2.23-2.55V1.5A.09.09,0,0,0,19,1.38c-.05-.3-1.15-.43-1.59,0-.09.08.22.17.31.18s.18.15,0,.15a2.58,2.58,0,0,0-2.44,2.86A2.17,2.17,0,0,1,16,4.47a.1.1,0,0,1,0,.19c-1.44.11-2,2.63,0,3.53,0,0,.1.06,0,.14s-.42.45-.06.65c.13.08.23.17.17.29s-.26.11-.46,0a4.07,4.07,0,0,0-3,.05,4.81,4.81,0,0,1,1.4,2.46"/><path class="cls-4" d="M3.74,5.29S3.4,5.14,3.23,5s-.59-.09-.6-.17.25-.12.49-.12.33.13.5.12.18.38.12.44"/><path class="cls-4" d="M8.9,42.85a6.52,6.52,0,0,0-1.6-.25l0-.53a7.7,7.7,0,0,1,1.73.27"/><path class="cls-4" d="M9.2,41.79a5.22,5.22,0,0,0-1.64-.27l0-.52a5.14,5.14,0,0,1,1.77.29"/><path class="cls-4" d="M20.17,6.35a.34.34,0,0,0-.17.1,8.39,8.39,0,0,0-2.57.1c0-.09,0-.22-.15-.2s-.1.1-.12.13c-.2.29-.27.45-.2.52s.18,0,.29-.16a1,1,0,0,1,.67.17c.23.16.71.76,1.21.55s.68-.76.93-.76.28,0,.3,0-.05-.5-.19-.46m-1.07.93c-.42.22-.68-.33-1.1-.51a4.65,4.65,0,0,1,1.74-.07C19.6,6.81,19.22,7.22,19.1,7.28Z"/><path class="cls-4" d="M19.7,2.85c-.49,0-.83.69-.78,1.45a1.65,1.65,0,0,0,.49,1.11.68.68,0,0,0,.49.18c.5,0,.84-.68.78-1.46A1.55,1.55,0,0,0,20.19,3a.59.59,0,0,0-.49-.16"/><path class="cls-2" d="M20.25,5h0a1.64,1.64,0,0,0,.17-.86A1.36,1.36,0,0,0,20,3.23a.44.44,0,0,0-.31-.11c-.34,0-.59.57-.55,1.16a.88.88,0,0,0,0,.16h0a0,0,0,0,0,0,0c0-.4.25-.72.51-.73s.57.36.58.85a1.09,1.09,0,0,1-.06.45"/><path class="cls-4" d="M17.5,2.9c-.52,0-.9.69-.87,1.46a1.56,1.56,0,0,0,.45,1.13.66.66,0,0,0,.53.2c.52,0,.91-.68.88-1.47A1.59,1.59,0,0,0,18,3.08a.69.69,0,0,0-.54-.18"/><path class="cls-2" d="M18.11,4.9h0a1.75,1.75,0,0,0,.1-.67,1.3,1.3,0,0,0-.36-.93.44.44,0,0,0-.34-.13c-.37,0-.67.57-.64,1.18a1.57,1.57,0,0,0,.17.67h0a0,0,0,0,0,0,0A1.91,1.91,0,0,1,17,4.69c0-.48.21-.88.51-.89s.56.37.58.86a1,1,0,0,1,0,.24"/></g></g></svg>