<svg xmlns="http://www.w3.org/2000/svg" viewBox="0 0 702.47 201.53"><defs><style>.cls-1{fill:#fdea1a;}.cls-1,.cls-2{fill-rule:evenodd;}.cls-2{fill:#e10d1a;}</style></defs><g id="Layer_2" data-name="Layer 2"><g id="Livello_1" data-name="Livello 1"><polygon class="cls-1" points="0 0 702.47 0 702.47 201.53 0 201.53 0 0 0 0"/><polygon class="cls-2" points="129.58 158.5 167.64 158.5 167.64 98.11 129.58 98.11 129.58 158.5 129.58 158.5"/><polygon class="cls-2" points="615.09 158.5 653.15 158.5 653.15 98.11 615.09 98.11 615.09 158.5 615.09 158.5"/><path class="cls-2" d="M636.17,43H41.88V158.21h65.8V85.82H636.17c13.45,0,24.39-9.58,24.39-21.42S649.62,43,636.17,43Zm-73,28.23H107.68V57.55l455.47.05c4.3,0,7.78,3,7.78,6.8s-3.48,6.83-7.78,6.83Z"/><path class="cls-2" d="M286.82,136.81c7.75-3.07,12.68-10,12.68-18,0-10.87-9.74-20.74-26.35-20.74H194.9v60.38h38V139h12.42l11.47,19.48H299.5l-12.68-21.68Zm-32.2-12.44H232.94V111.58l21.68.08c4,0,7.25,2.84,7.25,6.35s-3.24,6.36-7.25,6.36Z"/><polygon class="cls-2" points="323.31 158.5 407.19 158.5 407.19 145 361.32 145 361.32 136.13 407.19 136.13 407.19 121.53 361.32 121.53 361.32 112.66 407.19 112.66 407.19 98.11 323.31 98.11 323.31 158.5 323.31 158.5"/><polygon class="cls-2" points="471.13 98.11 433.09 98.11 433.09 158.5 509.67 158.5 509.67 145 471.13 145 471.13 98.11 471.13 98.11"/><polygon class="cls-2" points="560.76 98.11 522.73 98.11 522.73 158.5 599.3 158.5 599.3 145 560.76 145 560.76 98.11 560.76 98.11"/></g></g></svg>